<mxfile host="app.diagrams.net" modified="2024-06-27T22:19:37.914Z" agent="Mozilla/5.0 (Windows NT 10.0; Win64; x64) AppleWebKit/537.36 (KHTML, like Gecko) Chrome/120.0.0.0 Safari/537.36" etag="FtWNFNIdjLLbDexEvbsx" version="24.6.4" type="device">
  <diagram name="PÃ¡gina-1" id="YYPLR7em1B62Rwu6h7cD">
    <mxGraphModel dx="2939" dy="2709" grid="1" gridSize="10" guides="1" tooltips="1" connect="1" arrows="1" fold="1" page="1" pageScale="1" pageWidth="827" pageHeight="1169" math="0" shadow="0">
      <root>
        <mxCell id="0" />
        <mxCell id="1" parent="0" />
        <mxCell id="UHW693a0Wnq4BT_KecG--1" value="Cliente" style="swimlane;fontStyle=0;childLayout=stackLayout;horizontal=1;startSize=30;horizontalStack=0;resizeParent=1;resizeParentMax=0;resizeLast=0;collapsible=1;marginBottom=0;whiteSpace=wrap;html=1;fillColor=#ffcd28;strokeColor=#d79b00;gradientColor=#ffa500;" parent="1" vertex="1">
          <mxGeometry x="-100" y="-510" width="240" height="330" as="geometry" />
        </mxCell>
        <mxCell id="UHW693a0Wnq4BT_KecG--2" value="&lt;u&gt;clientDoc VARCHAR (10)&amp;nbsp;NOT NULL&lt;/u&gt;&amp;nbsp; &amp;nbsp;&amp;nbsp;&lt;b&gt;PK&lt;/b&gt;" style="text;strokeColor=none;fillColor=none;align=left;verticalAlign=middle;spacingLeft=4;spacingRight=4;overflow=hidden;points=[[0,0.5],[1,0.5]];portConstraint=eastwest;rotatable=0;whiteSpace=wrap;html=1;" parent="UHW693a0Wnq4BT_KecG--1" vertex="1">
          <mxGeometry y="30" width="240" height="30" as="geometry" />
        </mxCell>
        <mxCell id="UHW693a0Wnq4BT_KecG--44" value="&lt;u&gt;idCiudad DECIMAL (5,0) NOT NULL&lt;/u&gt;&amp;nbsp; &amp;nbsp; &amp;nbsp;&lt;b&gt;FK&lt;/b&gt;" style="text;strokeColor=none;fillColor=none;align=left;verticalAlign=middle;spacingLeft=4;spacingRight=4;overflow=hidden;points=[[0,0.5],[1,0.5]];portConstraint=eastwest;rotatable=0;whiteSpace=wrap;html=1;" parent="UHW693a0Wnq4BT_KecG--1" vertex="1">
          <mxGeometry y="60" width="240" height="30" as="geometry" />
        </mxCell>
        <mxCell id="UHW693a0Wnq4BT_KecG--5" value="clientNom VARCHAR (50) NOT NULL" style="text;strokeColor=none;fillColor=none;align=left;verticalAlign=middle;spacingLeft=4;spacingRight=4;overflow=hidden;points=[[0,0.5],[1,0.5]];portConstraint=eastwest;rotatable=0;whiteSpace=wrap;html=1;" parent="UHW693a0Wnq4BT_KecG--1" vertex="1">
          <mxGeometry y="90" width="240" height="30" as="geometry" />
        </mxCell>
        <mxCell id="UHW693a0Wnq4BT_KecG--4" value="clientDir VARCHAR (80) NOT NULL" style="text;strokeColor=none;fillColor=none;align=left;verticalAlign=middle;spacingLeft=4;spacingRight=4;overflow=hidden;points=[[0,0.5],[1,0.5]];portConstraint=eastwest;rotatable=0;whiteSpace=wrap;html=1;" parent="UHW693a0Wnq4BT_KecG--1" vertex="1">
          <mxGeometry y="120" width="240" height="30" as="geometry" />
        </mxCell>
        <mxCell id="UHW693a0Wnq4BT_KecG--6" value="clientTel VARCHAR (10) NOT NULL" style="text;strokeColor=none;fillColor=none;align=left;verticalAlign=middle;spacingLeft=4;spacingRight=4;overflow=hidden;points=[[0,0.5],[1,0.5]];portConstraint=eastwest;rotatable=0;whiteSpace=wrap;html=1;" parent="UHW693a0Wnq4BT_KecG--1" vertex="1">
          <mxGeometry y="150" width="240" height="30" as="geometry" />
        </mxCell>
        <mxCell id="UHW693a0Wnq4BT_KecG--7" value="clientEma VARCHAR (50) NOT NULL" style="text;strokeColor=none;fillColor=none;align=left;verticalAlign=middle;spacingLeft=4;spacingRight=4;overflow=hidden;points=[[0,0.5],[1,0.5]];portConstraint=eastwest;rotatable=0;whiteSpace=wrap;html=1;" parent="UHW693a0Wnq4BT_KecG--1" vertex="1">
          <mxGeometry y="180" width="240" height="30" as="geometry" />
        </mxCell>
        <mxCell id="yLPHmwctXrpFt8gfFYM9-3" value="clientCon VARCHAR (300) NOT NULL" style="text;strokeColor=none;fillColor=none;align=left;verticalAlign=middle;spacingLeft=4;spacingRight=4;overflow=hidden;points=[[0,0.5],[1,0.5]];portConstraint=eastwest;rotatable=0;whiteSpace=wrap;html=1;" parent="UHW693a0Wnq4BT_KecG--1" vertex="1">
          <mxGeometry y="210" width="240" height="30" as="geometry" />
        </mxCell>
        <mxCell id="5itmOo7OciiEflq-pPPm-1" value="clientPun DECIMAL (5,0) NOT NULL DEFAULT 0" style="text;strokeColor=none;fillColor=none;align=left;verticalAlign=middle;spacingLeft=4;spacingRight=4;overflow=hidden;points=[[0,0.5],[1,0.5]];portConstraint=eastwest;rotatable=0;whiteSpace=wrap;html=1;" parent="UHW693a0Wnq4BT_KecG--1" vertex="1">
          <mxGeometry y="240" width="240" height="30" as="geometry" />
        </mxCell>
        <mxCell id="Hx_mXP-tW_U6W2S-rnSu-2" value="clientAct BOOLEAN NOT NULL DEFAULT TRUE" style="text;strokeColor=none;fillColor=none;align=left;verticalAlign=middle;spacingLeft=4;spacingRight=4;overflow=hidden;points=[[0,0.5],[1,0.5]];portConstraint=eastwest;rotatable=0;whiteSpace=wrap;html=1;" parent="UHW693a0Wnq4BT_KecG--1" vertex="1">
          <mxGeometry y="270" width="240" height="30" as="geometry" />
        </mxCell>
        <mxCell id="Hx_mXP-tW_U6W2S-rnSu-3" value="sesionActiva BOOLEAN NOT NULL DEFAULT FALSE" style="text;strokeColor=none;fillColor=none;align=left;verticalAlign=middle;spacingLeft=4;spacingRight=4;overflow=hidden;points=[[0,0.5],[1,0.5]];portConstraint=eastwest;rotatable=0;whiteSpace=wrap;html=1;" parent="UHW693a0Wnq4BT_KecG--1" vertex="1">
          <mxGeometry y="300" width="240" height="30" as="geometry" />
        </mxCell>
        <mxCell id="UHW693a0Wnq4BT_KecG--9" value="Venta" style="swimlane;fontStyle=0;childLayout=stackLayout;horizontal=1;startSize=30;horizontalStack=0;resizeParent=1;resizeParentMax=0;resizeLast=0;collapsible=1;marginBottom=0;whiteSpace=wrap;html=1;fillColor=#ffcd28;strokeColor=#d79b00;gradientColor=#ffa500;" parent="1" vertex="1">
          <mxGeometry x="215" y="-760" width="280" height="360" as="geometry" />
        </mxCell>
        <mxCell id="UHW693a0Wnq4BT_KecG--10" value="&lt;u&gt;ventaNum DECIMAL (5,0) NOT NULL&lt;/u&gt;&amp;nbsp; &amp;nbsp; &amp;nbsp; &amp;nbsp; &amp;nbsp; &amp;nbsp; &amp;nbsp;&amp;nbsp;&lt;b&gt;PK&lt;/b&gt;" style="text;strokeColor=none;fillColor=none;align=left;verticalAlign=middle;spacingLeft=4;spacingRight=4;overflow=hidden;points=[[0,0.5],[1,0.5]];portConstraint=eastwest;rotatable=0;whiteSpace=wrap;html=1;" parent="UHW693a0Wnq4BT_KecG--9" vertex="1">
          <mxGeometry y="30" width="280" height="30" as="geometry" />
        </mxCell>
        <mxCell id="UHW693a0Wnq4BT_KecG--18" value="&lt;u&gt;docClient VARCHAR (10)&amp;nbsp;NOT NULL&lt;/u&gt;&amp;nbsp; &amp;nbsp; &amp;nbsp; &amp;nbsp; &amp;nbsp; &amp;nbsp; &amp;nbsp; &amp;nbsp;FK" style="text;strokeColor=none;fillColor=none;align=left;verticalAlign=middle;spacingLeft=4;spacingRight=4;overflow=hidden;points=[[0,0.5],[1,0.5]];portConstraint=eastwest;rotatable=0;whiteSpace=wrap;html=1;" parent="UHW693a0Wnq4BT_KecG--9" vertex="1">
          <mxGeometry y="60" width="280" height="30" as="geometry" />
        </mxCell>
        <mxCell id="Hx_mXP-tW_U6W2S-rnSu-8" value="departamento VARCHAR (40) NOT NULL" style="text;strokeColor=none;fillColor=none;align=left;verticalAlign=middle;spacingLeft=4;spacingRight=4;overflow=hidden;points=[[0,0.5],[1,0.5]];portConstraint=eastwest;rotatable=0;whiteSpace=wrap;html=1;" parent="UHW693a0Wnq4BT_KecG--9" vertex="1">
          <mxGeometry y="90" width="280" height="30" as="geometry" />
        </mxCell>
        <mxCell id="P0X9lRQ6gSxI_ii8KuhD-100" value="ciudad VARCHAR (40) NOT NULL" style="text;strokeColor=none;fillColor=none;align=left;verticalAlign=middle;spacingLeft=4;spacingRight=4;overflow=hidden;points=[[0,0.5],[1,0.5]];portConstraint=eastwest;rotatable=0;whiteSpace=wrap;html=1;" vertex="1" parent="UHW693a0Wnq4BT_KecG--9">
          <mxGeometry y="120" width="280" height="30" as="geometry" />
        </mxCell>
        <mxCell id="P0X9lRQ6gSxI_ii8KuhD-102" value="tipopago VARCHAR (20) NOT NULL" style="text;strokeColor=none;fillColor=none;align=left;verticalAlign=middle;spacingLeft=4;spacingRight=4;overflow=hidden;points=[[0,0.5],[1,0.5]];portConstraint=eastwest;rotatable=0;whiteSpace=wrap;html=1;" vertex="1" parent="UHW693a0Wnq4BT_KecG--9">
          <mxGeometry y="150" width="280" height="30" as="geometry" />
        </mxCell>
        <mxCell id="P0X9lRQ6gSxI_ii8KuhD-103" value="ventaRutFac VARCHAR (50) NOT NULL" style="text;strokeColor=none;fillColor=none;align=left;verticalAlign=middle;spacingLeft=4;spacingRight=4;overflow=hidden;points=[[0,0.5],[1,0.5]];portConstraint=eastwest;rotatable=0;whiteSpace=wrap;html=1;" vertex="1" parent="UHW693a0Wnq4BT_KecG--9">
          <mxGeometry y="180" width="280" height="30" as="geometry" />
        </mxCell>
        <mxCell id="pVnNqc0NSjyMipYpw8rr-1" value="ventaRec BOOLEAN NOT NULL DEFAULT FALSE" style="text;strokeColor=none;fillColor=none;align=left;verticalAlign=middle;spacingLeft=4;spacingRight=4;overflow=hidden;points=[[0,0.5],[1,0.5]];portConstraint=eastwest;rotatable=0;whiteSpace=wrap;html=1;" parent="UHW693a0Wnq4BT_KecG--9" vertex="1">
          <mxGeometry y="210" width="280" height="30" as="geometry" />
        </mxCell>
        <mxCell id="P0X9lRQ6gSxI_ii8KuhD-104" value="ventaPlaRec TIMESTAMP NOT NULL DEFAULT NOW()" style="text;strokeColor=none;fillColor=none;align=left;verticalAlign=middle;spacingLeft=4;spacingRight=4;overflow=hidden;points=[[0,0.5],[1,0.5]];portConstraint=eastwest;rotatable=0;whiteSpace=wrap;html=1;" vertex="1" parent="UHW693a0Wnq4BT_KecG--9">
          <mxGeometry y="240" width="280" height="30" as="geometry" />
        </mxCell>
        <mxCell id="P0X9lRQ6gSxI_ii8KuhD-105" value="ventaRutRec VARCHAR (50) DEFAULT NULL" style="text;strokeColor=none;fillColor=none;align=left;verticalAlign=middle;spacingLeft=4;spacingRight=4;overflow=hidden;points=[[0,0.5],[1,0.5]];portConstraint=eastwest;rotatable=0;whiteSpace=wrap;html=1;" vertex="1" parent="UHW693a0Wnq4BT_KecG--9">
          <mxGeometry y="270" width="280" height="30" as="geometry" />
        </mxCell>
        <mxCell id="TfvnZzf5zhwCHyDXL_qS-2" value="ventaDom BOOLEAN NOT NULL DEFAULT FALSE" style="text;strokeColor=none;fillColor=none;align=left;verticalAlign=middle;spacingLeft=4;spacingRight=4;overflow=hidden;points=[[0,0.5],[1,0.5]];portConstraint=eastwest;rotatable=0;whiteSpace=wrap;html=1;" parent="UHW693a0Wnq4BT_KecG--9" vertex="1">
          <mxGeometry y="300" width="280" height="30" as="geometry" />
        </mxCell>
        <mxCell id="P0X9lRQ6gSxI_ii8KuhD-106" value="ventaCan BOOLEAN NOT NULL DEFAULT FALSE" style="text;strokeColor=none;fillColor=none;align=left;verticalAlign=middle;spacingLeft=4;spacingRight=4;overflow=hidden;points=[[0,0.5],[1,0.5]];portConstraint=eastwest;rotatable=0;whiteSpace=wrap;html=1;" vertex="1" parent="UHW693a0Wnq4BT_KecG--9">
          <mxGeometry y="330" width="280" height="30" as="geometry" />
        </mxCell>
        <mxCell id="UHW693a0Wnq4BT_KecG--19" value="TipoProducto" style="swimlane;fontStyle=0;childLayout=stackLayout;horizontal=1;startSize=30;horizontalStack=0;resizeParent=1;resizeParentMax=0;resizeLast=0;collapsible=1;marginBottom=0;whiteSpace=wrap;html=1;fillColor=#ffcd28;strokeColor=#d79b00;gradientColor=#ffa500;" parent="1" vertex="1">
          <mxGeometry x="980" y="280" width="230" height="90" as="geometry" />
        </mxCell>
        <mxCell id="UHW693a0Wnq4BT_KecG--20" value="&lt;u&gt;tipoProId DECIMAL (2,0) NOT NULL&lt;/u&gt;&amp;nbsp;&lt;b&gt;PK&lt;/b&gt;" style="text;strokeColor=none;fillColor=none;align=left;verticalAlign=middle;spacingLeft=4;spacingRight=4;overflow=hidden;points=[[0,0.5],[1,0.5]];portConstraint=eastwest;rotatable=0;whiteSpace=wrap;html=1;" parent="UHW693a0Wnq4BT_KecG--19" vertex="1">
          <mxGeometry y="30" width="230" height="30" as="geometry" />
        </mxCell>
        <mxCell id="UHW693a0Wnq4BT_KecG--21" value="tipoProNom VARCHAR (30) NOT NULL" style="text;strokeColor=none;fillColor=none;align=left;verticalAlign=middle;spacingLeft=4;spacingRight=4;overflow=hidden;points=[[0,0.5],[1,0.5]];portConstraint=eastwest;rotatable=0;whiteSpace=wrap;html=1;" parent="UHW693a0Wnq4BT_KecG--19" vertex="1">
          <mxGeometry y="60" width="230" height="30" as="geometry" />
        </mxCell>
        <mxCell id="UHW693a0Wnq4BT_KecG--24" value="" style="edgeStyle=orthogonalEdgeStyle;fontSize=12;html=1;endArrow=ERoneToMany;rounded=0;exitX=1;exitY=0.5;exitDx=0;exitDy=0;entryX=0;entryY=0.5;entryDx=0;entryDy=0;endSize=9;" parent="1" source="UHW693a0Wnq4BT_KecG--2" target="UHW693a0Wnq4BT_KecG--18" edge="1">
          <mxGeometry width="100" height="100" relative="1" as="geometry">
            <mxPoint x="570" y="-230" as="sourcePoint" />
            <mxPoint x="670" y="-330" as="targetPoint" />
          </mxGeometry>
        </mxCell>
        <mxCell id="UHW693a0Wnq4BT_KecG--27" value="Producto" style="swimlane;fontStyle=0;childLayout=stackLayout;horizontal=1;startSize=30;horizontalStack=0;resizeParent=1;resizeParentMax=0;resizeLast=0;collapsible=1;marginBottom=0;whiteSpace=wrap;html=1;fillColor=#ffcd28;strokeColor=#d79b00;gradientColor=#ffa500;" parent="1" vertex="1">
          <mxGeometry x="610" y="260" width="260" height="510" as="geometry" />
        </mxCell>
        <mxCell id="UHW693a0Wnq4BT_KecG--28" value="&lt;u&gt;producCod VARCHAR (30)&amp;nbsp;NOT NULL&amp;nbsp;&lt;/u&gt; &amp;nbsp; &amp;nbsp;&lt;b&gt;PK&lt;/b&gt;&amp;nbsp;" style="text;strokeColor=none;fillColor=none;align=left;verticalAlign=middle;spacingLeft=4;spacingRight=4;overflow=hidden;points=[[0,0.5],[1,0.5]];portConstraint=eastwest;rotatable=0;whiteSpace=wrap;html=1;" parent="UHW693a0Wnq4BT_KecG--27" vertex="1">
          <mxGeometry y="30" width="260" height="30" as="geometry" />
        </mxCell>
        <mxCell id="UHW693a0Wnq4BT_KecG--29" value="&lt;u&gt;idTipoPro DECIMAL (2,0) NOT NULL&lt;/u&gt;&lt;span style=&quot;white-space: pre;&quot;&gt;&#x9;&lt;/span&gt;&amp;nbsp; &amp;nbsp;FK" style="text;strokeColor=none;fillColor=none;align=left;verticalAlign=middle;spacingLeft=4;spacingRight=4;overflow=hidden;points=[[0,0.5],[1,0.5]];portConstraint=eastwest;rotatable=0;whiteSpace=wrap;html=1;" parent="UHW693a0Wnq4BT_KecG--27" vertex="1">
          <mxGeometry y="60" width="260" height="30" as="geometry" />
        </mxCell>
        <mxCell id="P0X9lRQ6gSxI_ii8KuhD-66" value="&lt;u&gt;idLinea&amp;nbsp;DECIMAL (2,0) NOT NULL&lt;/u&gt;&lt;span style=&quot;white-space: pre;&quot;&gt;&#x9;&lt;/span&gt;&amp;nbsp; &amp;nbsp;FK" style="text;strokeColor=none;fillColor=none;align=left;verticalAlign=middle;spacingLeft=4;spacingRight=4;overflow=hidden;points=[[0,0.5],[1,0.5]];portConstraint=eastwest;rotatable=0;whiteSpace=wrap;html=1;" vertex="1" parent="UHW693a0Wnq4BT_KecG--27">
          <mxGeometry y="90" width="260" height="30" as="geometry" />
        </mxCell>
        <mxCell id="P0X9lRQ6gSxI_ii8KuhD-68" value="&lt;u&gt;idMarca DECIMAL (3,0) NOT NULL&lt;/u&gt;&lt;span style=&quot;white-space: pre;&quot;&gt;&#x9;&lt;/span&gt;&amp;nbsp; &amp;nbsp;FK" style="text;strokeColor=none;fillColor=none;align=left;verticalAlign=middle;spacingLeft=4;spacingRight=4;overflow=hidden;points=[[0,0.5],[1,0.5]];portConstraint=eastwest;rotatable=0;whiteSpace=wrap;html=1;" vertex="1" parent="UHW693a0Wnq4BT_KecG--27">
          <mxGeometry y="120" width="260" height="30" as="geometry" />
        </mxCell>
        <mxCell id="P0X9lRQ6gSxI_ii8KuhD-67" value="&lt;u&gt;nomEstant VARCHAR (2)&lt;/u&gt;&lt;span style=&quot;white-space: pre;&quot;&gt;&#x9;&lt;/span&gt;&amp;nbsp; &amp;nbsp; &amp;nbsp; &amp;nbsp; &amp;nbsp; &amp;nbsp; &amp;nbsp; &amp;nbsp; &amp;nbsp; &amp;nbsp;FK" style="text;strokeColor=none;fillColor=none;align=left;verticalAlign=middle;spacingLeft=4;spacingRight=4;overflow=hidden;points=[[0,0.5],[1,0.5]];portConstraint=eastwest;rotatable=0;whiteSpace=wrap;html=1;" vertex="1" parent="UHW693a0Wnq4BT_KecG--27">
          <mxGeometry y="150" width="260" height="30" as="geometry" />
        </mxCell>
        <mxCell id="P0X9lRQ6gSxI_ii8KuhD-70" value="&lt;u&gt;numBandeja DECIMAL (2,0)&lt;/u&gt;&amp;nbsp; &amp;nbsp; &amp;nbsp; &amp;nbsp; &amp;nbsp; &amp;nbsp; &amp;nbsp; &amp;nbsp; &amp;nbsp; &amp;nbsp; &amp;nbsp; FK" style="text;strokeColor=none;fillColor=none;align=left;verticalAlign=middle;spacingLeft=4;spacingRight=4;overflow=hidden;points=[[0,0.5],[1,0.5]];portConstraint=eastwest;rotatable=0;whiteSpace=wrap;html=1;" vertex="1" parent="UHW693a0Wnq4BT_KecG--27">
          <mxGeometry y="180" width="260" height="30" as="geometry" />
        </mxCell>
        <mxCell id="P0X9lRQ6gSxI_ii8KuhD-69" value="&lt;u&gt;codSeccion VARCHAR (5)&lt;/u&gt;&amp;nbsp; &amp;nbsp; &amp;nbsp; &amp;nbsp; &amp;nbsp; &amp;nbsp; &amp;nbsp; &amp;nbsp; &amp;nbsp; &amp;nbsp; &amp;nbsp; &amp;nbsp; &amp;nbsp;FK" style="text;strokeColor=none;fillColor=none;align=left;verticalAlign=middle;spacingLeft=4;spacingRight=4;overflow=hidden;points=[[0,0.5],[1,0.5]];portConstraint=eastwest;rotatable=0;whiteSpace=wrap;html=1;" vertex="1" parent="UHW693a0Wnq4BT_KecG--27">
          <mxGeometry y="210" width="260" height="30" as="geometry" />
        </mxCell>
        <mxCell id="P0X9lRQ6gSxI_ii8KuhD-65" value="producNom VARCHAR (200) NOT NULL" style="text;strokeColor=none;fillColor=none;align=left;verticalAlign=middle;spacingLeft=4;spacingRight=4;overflow=hidden;points=[[0,0.5],[1,0.5]];portConstraint=eastwest;rotatable=0;whiteSpace=wrap;html=1;" vertex="1" parent="UHW693a0Wnq4BT_KecG--27">
          <mxGeometry y="240" width="260" height="30" as="geometry" />
        </mxCell>
        <mxCell id="P0X9lRQ6gSxI_ii8KuhD-71" value="producMod VARCHAR (20) NOT NULL" style="text;strokeColor=none;fillColor=none;align=left;verticalAlign=middle;spacingLeft=4;spacingRight=4;overflow=hidden;points=[[0,0.5],[1,0.5]];portConstraint=eastwest;rotatable=0;whiteSpace=wrap;html=1;" vertex="1" parent="UHW693a0Wnq4BT_KecG--27">
          <mxGeometry y="270" width="260" height="30" as="geometry" />
        </mxCell>
        <mxCell id="UHW693a0Wnq4BT_KecG--30" value="producSto DECIMAL (3,0) NOT NULL CHECK(producSto&amp;gt;=0)" style="text;strokeColor=none;fillColor=none;align=left;verticalAlign=middle;spacingLeft=4;spacingRight=4;overflow=hidden;points=[[0,0.5],[1,0.5]];portConstraint=eastwest;rotatable=0;whiteSpace=wrap;html=1;" parent="UHW693a0Wnq4BT_KecG--27" vertex="1">
          <mxGeometry y="300" width="260" height="30" as="geometry" />
        </mxCell>
        <mxCell id="UHW693a0Wnq4BT_KecG--31" value="producPre DECIMAL (8,0)" style="text;strokeColor=none;fillColor=none;align=left;verticalAlign=middle;spacingLeft=4;spacingRight=4;overflow=hidden;points=[[0,0.5],[1,0.5]];portConstraint=eastwest;rotatable=0;whiteSpace=wrap;html=1;" parent="UHW693a0Wnq4BT_KecG--27" vertex="1">
          <mxGeometry y="330" width="260" height="30" as="geometry" />
        </mxCell>
        <mxCell id="UHW693a0Wnq4BT_KecG--32" value="producBod BOOLEAN NOT NULL DEFAULT TRUE" style="text;strokeColor=none;fillColor=none;align=left;verticalAlign=middle;spacingLeft=4;spacingRight=4;overflow=hidden;points=[[0,0.5],[1,0.5]];portConstraint=eastwest;rotatable=0;whiteSpace=wrap;html=1;" parent="UHW693a0Wnq4BT_KecG--27" vertex="1">
          <mxGeometry y="360" width="260" height="30" as="geometry" />
        </mxCell>
        <mxCell id="P0X9lRQ6gSxI_ii8KuhD-72" value="producEst BOOLEAN NOT NULL DEFAULT FALSE" style="text;strokeColor=none;fillColor=none;align=left;verticalAlign=middle;spacingLeft=4;spacingRight=4;overflow=hidden;points=[[0,0.5],[1,0.5]];portConstraint=eastwest;rotatable=0;whiteSpace=wrap;html=1;" vertex="1" parent="UHW693a0Wnq4BT_KecG--27">
          <mxGeometry y="390" width="260" height="30" as="geometry" />
        </mxCell>
        <mxCell id="P0X9lRQ6gSxI_ii8KuhD-73" value="producMos BOOLEAN NOT NULL DEFAULT FALSE" style="text;strokeColor=none;fillColor=none;align=left;verticalAlign=middle;spacingLeft=4;spacingRight=4;overflow=hidden;points=[[0,0.5],[1,0.5]];portConstraint=eastwest;rotatable=0;whiteSpace=wrap;html=1;" vertex="1" parent="UHW693a0Wnq4BT_KecG--27">
          <mxGeometry y="420" width="260" height="30" as="geometry" />
        </mxCell>
        <mxCell id="P0X9lRQ6gSxI_ii8KuhD-74" value="producAct BOOLEAN NOT NULL DEFAULT TRUE" style="text;strokeColor=none;fillColor=none;align=left;verticalAlign=middle;spacingLeft=4;spacingRight=4;overflow=hidden;points=[[0,0.5],[1,0.5]];portConstraint=eastwest;rotatable=0;whiteSpace=wrap;html=1;" vertex="1" parent="UHW693a0Wnq4BT_KecG--27">
          <mxGeometry y="450" width="260" height="30" as="geometry" />
        </mxCell>
        <mxCell id="P0X9lRQ6gSxI_ii8KuhD-75" value="producMen DECIMAL (6,0) NOT NULL DEFAULT 0" style="text;strokeColor=none;fillColor=none;align=left;verticalAlign=middle;spacingLeft=4;spacingRight=4;overflow=hidden;points=[[0,0.5],[1,0.5]];portConstraint=eastwest;rotatable=0;whiteSpace=wrap;html=1;" vertex="1" parent="UHW693a0Wnq4BT_KecG--27">
          <mxGeometry y="480" width="260" height="30" as="geometry" />
        </mxCell>
        <mxCell id="UHW693a0Wnq4BT_KecG--33" value="Proveedor" style="swimlane;fontStyle=0;childLayout=stackLayout;horizontal=1;startSize=30;horizontalStack=0;resizeParent=1;resizeParentMax=0;resizeLast=0;collapsible=1;marginBottom=0;whiteSpace=wrap;html=1;fillColor=#ffcd28;strokeColor=#d79b00;gradientColor=#ffa500;" parent="1" vertex="1">
          <mxGeometry x="-105" y="290" width="235" height="240" as="geometry" />
        </mxCell>
        <mxCell id="UHW693a0Wnq4BT_KecG--34" value="&lt;u&gt;proveeNit VARCHAR (10) NOT NULL&lt;/u&gt;&amp;nbsp;&amp;nbsp;&lt;b&gt;PK&lt;/b&gt;" style="text;strokeColor=none;fillColor=none;align=left;verticalAlign=middle;spacingLeft=4;spacingRight=4;overflow=hidden;points=[[0,0.5],[1,0.5]];portConstraint=eastwest;rotatable=0;whiteSpace=wrap;html=1;" parent="UHW693a0Wnq4BT_KecG--33" vertex="1">
          <mxGeometry y="30" width="235" height="30" as="geometry" />
        </mxCell>
        <mxCell id="UHW693a0Wnq4BT_KecG--46" value="&lt;u&gt;idCiudad&amp;nbsp; DECIMAL (5,0) NOT NULL&lt;/u&gt;&amp;nbsp; F&lt;b&gt;K&lt;/b&gt;&amp;nbsp;" style="text;strokeColor=none;fillColor=none;align=left;verticalAlign=middle;spacingLeft=4;spacingRight=4;overflow=hidden;points=[[0,0.5],[1,0.5]];portConstraint=eastwest;rotatable=0;whiteSpace=wrap;html=1;" parent="UHW693a0Wnq4BT_KecG--33" vertex="1">
          <mxGeometry y="60" width="235" height="30" as="geometry" />
        </mxCell>
        <mxCell id="UHW693a0Wnq4BT_KecG--35" value="proveeNom VARCHAR (40) NOT NULL" style="text;strokeColor=none;fillColor=none;align=left;verticalAlign=middle;spacingLeft=4;spacingRight=4;overflow=hidden;points=[[0,0.5],[1,0.5]];portConstraint=eastwest;rotatable=0;whiteSpace=wrap;html=1;" parent="UHW693a0Wnq4BT_KecG--33" vertex="1">
          <mxGeometry y="90" width="235" height="30" as="geometry" />
        </mxCell>
        <mxCell id="UHW693a0Wnq4BT_KecG--36" value="proveeDir VARCHAR (80) NOT NULL" style="text;strokeColor=none;fillColor=none;align=left;verticalAlign=middle;spacingLeft=4;spacingRight=4;overflow=hidden;points=[[0,0.5],[1,0.5]];portConstraint=eastwest;rotatable=0;whiteSpace=wrap;html=1;" parent="UHW693a0Wnq4BT_KecG--33" vertex="1">
          <mxGeometry y="120" width="235" height="30" as="geometry" />
        </mxCell>
        <mxCell id="P0X9lRQ6gSxI_ii8KuhD-45" value="proveeTel VARCHAR (10) NOT NULL" style="text;strokeColor=none;fillColor=none;align=left;verticalAlign=middle;spacingLeft=4;spacingRight=4;overflow=hidden;points=[[0,0.5],[1,0.5]];portConstraint=eastwest;rotatable=0;whiteSpace=wrap;html=1;" vertex="1" parent="UHW693a0Wnq4BT_KecG--33">
          <mxGeometry y="150" width="235" height="30" as="geometry" />
        </mxCell>
        <mxCell id="TfvnZzf5zhwCHyDXL_qS-1" value="proveeEma VARCHAR (50) NOT NULL" style="text;strokeColor=none;fillColor=none;align=left;verticalAlign=middle;spacingLeft=4;spacingRight=4;overflow=hidden;points=[[0,0.5],[1,0.5]];portConstraint=eastwest;rotatable=0;whiteSpace=wrap;html=1;" parent="UHW693a0Wnq4BT_KecG--33" vertex="1">
          <mxGeometry y="180" width="235" height="30" as="geometry" />
        </mxCell>
        <mxCell id="UHW693a0Wnq4BT_KecG--37" value="proveeAct BOOLEAN NOT NULL DEFAULT TRUE" style="text;strokeColor=none;fillColor=none;align=left;verticalAlign=middle;spacingLeft=4;spacingRight=4;overflow=hidden;points=[[0,0.5],[1,0.5]];portConstraint=eastwest;rotatable=0;whiteSpace=wrap;html=1;" parent="UHW693a0Wnq4BT_KecG--33" vertex="1">
          <mxGeometry y="210" width="235" height="30" as="geometry" />
        </mxCell>
        <mxCell id="UHW693a0Wnq4BT_KecG--38" value="Ciudad" style="swimlane;fontStyle=0;childLayout=stackLayout;horizontal=1;startSize=30;horizontalStack=0;resizeParent=1;resizeParentMax=0;resizeLast=0;collapsible=1;marginBottom=0;whiteSpace=wrap;html=1;fillColor=#ffcd28;strokeColor=#d79b00;gradientColor=#ffa500;" parent="1" vertex="1">
          <mxGeometry x="-100" y="110" width="230" height="150" as="geometry" />
        </mxCell>
        <mxCell id="UHW693a0Wnq4BT_KecG--39" value="&lt;u&gt;ciudadId DECIMAL (5,0) NOT NULL&lt;/u&gt;&amp;nbsp; &amp;nbsp;&lt;b&gt;PK&lt;/b&gt;" style="text;strokeColor=none;fillColor=none;align=left;verticalAlign=middle;spacingLeft=4;spacingRight=4;overflow=hidden;points=[[0,0.5],[1,0.5]];portConstraint=eastwest;rotatable=0;whiteSpace=wrap;html=1;" parent="UHW693a0Wnq4BT_KecG--38" vertex="1">
          <mxGeometry y="30" width="230" height="30" as="geometry" />
        </mxCell>
        <mxCell id="t3XefT4DrZrVAsHFot_A-1" value="&lt;u&gt;IdDepart DECIMAL NOT NULL&lt;/u&gt;&amp;nbsp; &amp;nbsp; &amp;nbsp; &amp;nbsp; &amp;nbsp; &amp;nbsp;F&lt;b&gt;K&lt;/b&gt;" style="text;strokeColor=none;fillColor=none;align=left;verticalAlign=middle;spacingLeft=4;spacingRight=4;overflow=hidden;points=[[0,0.5],[1,0.5]];portConstraint=eastwest;rotatable=0;whiteSpace=wrap;html=1;" parent="UHW693a0Wnq4BT_KecG--38" vertex="1">
          <mxGeometry y="60" width="230" height="30" as="geometry" />
        </mxCell>
        <mxCell id="UHW693a0Wnq4BT_KecG--40" value="ciudadNom VARCHAR (40) NOT NULL" style="text;strokeColor=none;fillColor=none;align=left;verticalAlign=middle;spacingLeft=4;spacingRight=4;overflow=hidden;points=[[0,0.5],[1,0.5]];portConstraint=eastwest;rotatable=0;whiteSpace=wrap;html=1;" parent="UHW693a0Wnq4BT_KecG--38" vertex="1">
          <mxGeometry y="90" width="230" height="30" as="geometry" />
        </mxCell>
        <mxCell id="61FQVvXKAMuJR3-rqrtT-23" value="precioDom&amp;nbsp; DECIMAL (5,0) NOT NULL DEFAULT 0" style="text;strokeColor=none;fillColor=none;align=left;verticalAlign=middle;spacingLeft=4;spacingRight=4;overflow=hidden;points=[[0,0.5],[1,0.5]];portConstraint=eastwest;rotatable=0;whiteSpace=wrap;html=1;" parent="UHW693a0Wnq4BT_KecG--38" vertex="1">
          <mxGeometry y="120" width="230" height="30" as="geometry" />
        </mxCell>
        <mxCell id="UHW693a0Wnq4BT_KecG--42" value="" style="fontSize=12;html=1;endArrow=ERoneToMany;rounded=0;endSize=9;entryX=0;entryY=0.5;entryDx=0;entryDy=0;edgeStyle=orthogonalEdgeStyle;exitX=0;exitY=0.25;exitDx=0;exitDy=0;" parent="1" source="UHW693a0Wnq4BT_KecG--38" target="UHW693a0Wnq4BT_KecG--44" edge="1">
          <mxGeometry width="100" height="100" relative="1" as="geometry">
            <mxPoint x="-100" y="-95" as="sourcePoint" />
            <mxPoint x="100" y="-220" as="targetPoint" />
            <Array as="points">
              <mxPoint x="-150" y="148" />
              <mxPoint x="-150" y="-435" />
            </Array>
          </mxGeometry>
        </mxCell>
        <mxCell id="UHW693a0Wnq4BT_KecG--48" value="" style="edgeStyle=orthogonalEdgeStyle;fontSize=12;html=1;endArrow=ERoneToMany;rounded=0;endSize=9;exitX=0.003;exitY=0.887;exitDx=0;exitDy=0;entryX=0;entryY=0.5;entryDx=0;entryDy=0;exitPerimeter=0;" parent="1" source="UHW693a0Wnq4BT_KecG--39" target="UHW693a0Wnq4BT_KecG--46" edge="1">
          <mxGeometry width="100" height="100" relative="1" as="geometry">
            <mxPoint x="130" y="-50" as="sourcePoint" />
            <mxPoint x="230" y="-105" as="targetPoint" />
            <Array as="points">
              <mxPoint x="-170" y="167" />
              <mxPoint x="-170" y="365" />
            </Array>
          </mxGeometry>
        </mxCell>
        <mxCell id="UHW693a0Wnq4BT_KecG--49" style="edgeStyle=none;rounded=0;orthogonalLoop=1;jettySize=auto;html=1;exitX=0.25;exitY=0;exitDx=0;exitDy=0;startSize=6;endSize=9;" parent="1" source="UHW693a0Wnq4BT_KecG--9" target="UHW693a0Wnq4BT_KecG--9" edge="1">
          <mxGeometry relative="1" as="geometry" />
        </mxCell>
        <mxCell id="oVwKqEpw7itJaS_T92dx-1" value="DetalleVenta" style="swimlane;fontStyle=0;childLayout=stackLayout;horizontal=1;startSize=30;horizontalStack=0;resizeParent=1;resizeParentMax=0;resizeLast=0;collapsible=1;marginBottom=0;whiteSpace=wrap;html=1;fillColor=#ffcd28;strokeColor=#d79b00;gradientColor=#ffa500;" parent="1" vertex="1">
          <mxGeometry x="200" y="-300" width="270" height="210" as="geometry" />
        </mxCell>
        <mxCell id="oVwKqEpw7itJaS_T92dx-2" value="&lt;u&gt;numVenta DECIMAL (5,0) NOT NULL&lt;/u&gt;&amp;nbsp; &amp;nbsp; &lt;b&gt;PK&amp;nbsp;&lt;/b&gt;FK" style="text;strokeColor=none;fillColor=none;align=left;verticalAlign=middle;spacingLeft=4;spacingRight=4;overflow=hidden;points=[[0,0.5],[1,0.5]];portConstraint=eastwest;rotatable=0;whiteSpace=wrap;html=1;" parent="oVwKqEpw7itJaS_T92dx-1" vertex="1">
          <mxGeometry y="30" width="270" height="30" as="geometry" />
        </mxCell>
        <mxCell id="oVwKqEpw7itJaS_T92dx-4" value="&lt;u&gt;codProduc VARCHAR (30)&lt;/u&gt;&amp;nbsp;NOT NULL&amp;nbsp; &amp;nbsp; &amp;nbsp; &amp;nbsp;FK" style="text;strokeColor=none;fillColor=none;align=left;verticalAlign=middle;spacingLeft=4;spacingRight=4;overflow=hidden;points=[[0,0.5],[1,0.5]];portConstraint=eastwest;rotatable=0;whiteSpace=wrap;html=1;" parent="oVwKqEpw7itJaS_T92dx-1" vertex="1">
          <mxGeometry y="60" width="270" height="30" as="geometry" />
        </mxCell>
        <mxCell id="oVwKqEpw7itJaS_T92dx-5" value="detVentaCan DECIMAL (3,0) NOT NULL" style="text;strokeColor=none;fillColor=none;align=left;verticalAlign=middle;spacingLeft=4;spacingRight=4;overflow=hidden;points=[[0,0.5],[1,0.5]];portConstraint=eastwest;rotatable=0;whiteSpace=wrap;html=1;" parent="oVwKqEpw7itJaS_T92dx-1" vertex="1">
          <mxGeometry y="90" width="270" height="30" as="geometry" />
        </mxCell>
        <mxCell id="P0X9lRQ6gSxI_ii8KuhD-108" value="precioProduc DECIMAL (8,0) NOT NULL" style="text;strokeColor=none;fillColor=none;align=left;verticalAlign=middle;spacingLeft=4;spacingRight=4;overflow=hidden;points=[[0,0.5],[1,0.5]];portConstraint=eastwest;rotatable=0;whiteSpace=wrap;html=1;" vertex="1" parent="oVwKqEpw7itJaS_T92dx-1">
          <mxGeometry y="120" width="270" height="30" as="geometry" />
        </mxCell>
        <mxCell id="MN3j87kPTeBehLGBgUPZ-39" value="detVentaDes DECIMAL (6,0) NOT NULL" style="text;strokeColor=none;fillColor=none;align=left;verticalAlign=middle;spacingLeft=4;spacingRight=4;overflow=hidden;points=[[0,0.5],[1,0.5]];portConstraint=eastwest;rotatable=0;whiteSpace=wrap;html=1;" parent="oVwKqEpw7itJaS_T92dx-1" vertex="1">
          <mxGeometry y="150" width="270" height="30" as="geometry" />
        </mxCell>
        <mxCell id="oVwKqEpw7itJaS_T92dx-6" value="detVentaValPar DECIMAL (8,0) NOT NULL" style="text;strokeColor=none;fillColor=none;align=left;verticalAlign=middle;spacingLeft=4;spacingRight=4;overflow=hidden;points=[[0,0.5],[1,0.5]];portConstraint=eastwest;rotatable=0;whiteSpace=wrap;html=1;" parent="oVwKqEpw7itJaS_T92dx-1" vertex="1">
          <mxGeometry y="180" width="270" height="30" as="geometry" />
        </mxCell>
        <mxCell id="oVwKqEpw7itJaS_T92dx-8" value="" style="edgeStyle=orthogonalEdgeStyle;fontSize=12;html=1;endArrow=ERoneToMany;rounded=0;exitX=1;exitY=0.8;exitDx=0;exitDy=0;startSize=6;endSize=9;exitPerimeter=0;" parent="1" source="UHW693a0Wnq4BT_KecG--10" edge="1">
          <mxGeometry width="100" height="100" relative="1" as="geometry">
            <mxPoint x="571" y="-368" as="sourcePoint" />
            <mxPoint x="470" y="-250" as="targetPoint" />
            <Array as="points">
              <mxPoint x="540" y="-706" />
              <mxPoint x="540" y="-250" />
              <mxPoint x="470" y="-250" />
            </Array>
          </mxGeometry>
        </mxCell>
        <mxCell id="oVwKqEpw7itJaS_T92dx-9" value="" style="edgeStyle=orthogonalEdgeStyle;fontSize=12;html=1;endArrow=ERoneToMany;rounded=0;startSize=6;endSize=9;entryX=1;entryY=0.5;entryDx=0;entryDy=0;exitX=0;exitY=0.333;exitDx=0;exitDy=0;exitPerimeter=0;" parent="1" source="UHW693a0Wnq4BT_KecG--28" target="oVwKqEpw7itJaS_T92dx-4" edge="1">
          <mxGeometry width="100" height="100" relative="1" as="geometry">
            <mxPoint x="600" y="300" as="sourcePoint" />
            <mxPoint x="480" y="-230" as="targetPoint" />
            <Array as="points">
              <mxPoint x="560" y="300" />
              <mxPoint x="560" y="-225" />
            </Array>
          </mxGeometry>
        </mxCell>
        <mxCell id="UISFEy1dnGY1AOQaQV74-1" value="PedidoProveedor" style="swimlane;fontStyle=0;childLayout=stackLayout;horizontal=1;startSize=30;horizontalStack=0;resizeParent=1;resizeParentMax=0;resizeLast=0;collapsible=1;marginBottom=0;whiteSpace=wrap;html=1;fillColor=#ffcd28;strokeColor=#d79b00;gradientColor=#ffa500;" parent="1" vertex="1">
          <mxGeometry x="230" y="260" width="250" height="270" as="geometry" />
        </mxCell>
        <mxCell id="UISFEy1dnGY1AOQaQV74-2" value="&lt;u&gt;pedidoNum DECIMAL NOT NULL&lt;/u&gt;&amp;nbsp; &amp;nbsp; &amp;nbsp; &amp;nbsp; &amp;nbsp; &amp;nbsp;&amp;nbsp;&lt;b&gt;PK&lt;/b&gt;" style="text;strokeColor=none;fillColor=none;align=left;verticalAlign=middle;spacingLeft=4;spacingRight=4;overflow=hidden;points=[[0,0.5],[1,0.5]];portConstraint=eastwest;rotatable=0;whiteSpace=wrap;html=1;" parent="UISFEy1dnGY1AOQaQV74-1" vertex="1">
          <mxGeometry y="30" width="250" height="30" as="geometry" />
        </mxCell>
        <mxCell id="UISFEy1dnGY1AOQaQV74-3" value="&lt;u&gt;nitProvee VARCHAR (10)&amp;nbsp;NOT NULL&amp;nbsp;&lt;/u&gt; &amp;nbsp; &amp;nbsp; FK" style="text;strokeColor=none;fillColor=none;align=left;verticalAlign=middle;spacingLeft=4;spacingRight=4;overflow=hidden;points=[[0,0.5],[1,0.5]];portConstraint=eastwest;rotatable=0;whiteSpace=wrap;html=1;" parent="UISFEy1dnGY1AOQaQV74-1" vertex="1">
          <mxGeometry y="60" width="250" height="30" as="geometry" />
        </mxCell>
        <mxCell id="P0X9lRQ6gSxI_ii8KuhD-120" value="tipopago&amp;nbsp; VARCHAR (20) NOT NULL" style="text;strokeColor=none;fillColor=none;align=left;verticalAlign=middle;spacingLeft=4;spacingRight=4;overflow=hidden;points=[[0,0.5],[1,0.5]];portConstraint=eastwest;rotatable=0;whiteSpace=wrap;html=1;" vertex="1" parent="UISFEy1dnGY1AOQaQV74-1">
          <mxGeometry y="90" width="250" height="30" as="geometry" />
        </mxCell>
        <mxCell id="MN3j87kPTeBehLGBgUPZ-31" value="pedidoTotal DECIMAL (9,0) NOT NULL&lt;span style=&quot;white-space: pre;&quot;&gt;&#x9;&lt;/span&gt;" style="text;strokeColor=none;fillColor=none;align=left;verticalAlign=middle;spacingLeft=4;spacingRight=4;overflow=hidden;points=[[0,0.5],[1,0.5]];portConstraint=eastwest;rotatable=0;whiteSpace=wrap;html=1;" parent="UISFEy1dnGY1AOQaQV74-1" vertex="1">
          <mxGeometry y="120" width="250" height="30" as="geometry" />
        </mxCell>
        <mxCell id="UISFEy1dnGY1AOQaQV74-8" value="pedidoIva DECIMAL (9,0) NOT NULL" style="text;strokeColor=none;fillColor=none;align=left;verticalAlign=middle;spacingLeft=4;spacingRight=4;overflow=hidden;points=[[0,0.5],[1,0.5]];portConstraint=eastwest;rotatable=0;whiteSpace=wrap;html=1;" parent="UISFEy1dnGY1AOQaQV74-1" vertex="1">
          <mxGeometry y="150" width="250" height="30" as="geometry" />
        </mxCell>
        <mxCell id="MN3j87kPTeBehLGBgUPZ-30" value="pedidoRutPag VARCHAR (50) DEFAULT NULL&amp;nbsp;" style="text;strokeColor=none;fillColor=none;align=left;verticalAlign=middle;spacingLeft=4;spacingRight=4;overflow=hidden;points=[[0,0.5],[1,0.5]];portConstraint=eastwest;rotatable=0;whiteSpace=wrap;html=1;" parent="UISFEy1dnGY1AOQaQV74-1" vertex="1">
          <mxGeometry y="180" width="250" height="30" as="geometry" />
        </mxCell>
        <mxCell id="Hx_mXP-tW_U6W2S-rnSu-27" value="pedidoPag BOOLEAN NOT NULL" style="text;strokeColor=none;fillColor=none;align=left;verticalAlign=middle;spacingLeft=4;spacingRight=4;overflow=hidden;points=[[0,0.5],[1,0.5]];portConstraint=eastwest;rotatable=0;whiteSpace=wrap;html=1;" parent="UISFEy1dnGY1AOQaQV74-1" vertex="1">
          <mxGeometry y="210" width="250" height="30" as="geometry" />
        </mxCell>
        <mxCell id="P0X9lRQ6gSxI_ii8KuhD-121" value="PagoPlazo TIMESTAMP NOT NULL DEFAULT NOW()" style="text;strokeColor=none;fillColor=none;align=left;verticalAlign=middle;spacingLeft=4;spacingRight=4;overflow=hidden;points=[[0,0.5],[1,0.5]];portConstraint=eastwest;rotatable=0;whiteSpace=wrap;html=1;" vertex="1" parent="UISFEy1dnGY1AOQaQV74-1">
          <mxGeometry y="240" width="250" height="30" as="geometry" />
        </mxCell>
        <mxCell id="UISFEy1dnGY1AOQaQV74-9" value="" style="edgeStyle=orthogonalEdgeStyle;fontSize=12;html=1;endArrow=ERoneToMany;rounded=0;endSize=9;exitX=1;exitY=0.5;exitDx=0;exitDy=0;entryX=0;entryY=0.5;entryDx=0;entryDy=0;" parent="1" source="UHW693a0Wnq4BT_KecG--34" target="UISFEy1dnGY1AOQaQV74-3" edge="1">
          <mxGeometry width="100" height="100" relative="1" as="geometry">
            <mxPoint x="136" y="88" as="sourcePoint" />
            <mxPoint x="-95" y="335" as="targetPoint" />
            <Array as="points">
              <mxPoint x="140" y="335" />
              <mxPoint x="140" y="335" />
            </Array>
          </mxGeometry>
        </mxCell>
        <mxCell id="yLPHmwctXrpFt8gfFYM9-5" value="Parametros" style="swimlane;fontStyle=0;childLayout=stackLayout;horizontal=1;startSize=30;horizontalStack=0;resizeParent=1;resizeParentMax=0;resizeLast=0;collapsible=1;marginBottom=0;whiteSpace=wrap;html=1;fillColor=#d5e8d4;strokeColor=#82b366;" parent="1" vertex="1">
          <mxGeometry x="-510" y="-420" width="250" height="480" as="geometry" />
        </mxCell>
        <mxCell id="yLPHmwctXrpFt8gfFYM9-6" value="&lt;u&gt;empreNit VARCHAR (10) NOT NULL&lt;/u&gt;&amp;nbsp; &amp;nbsp;&lt;b&gt;PK&lt;/b&gt;&amp;nbsp;" style="text;strokeColor=none;fillColor=none;align=left;verticalAlign=middle;spacingLeft=4;spacingRight=4;overflow=hidden;points=[[0,0.5],[1,0.5]];portConstraint=eastwest;rotatable=0;whiteSpace=wrap;html=1;" parent="yLPHmwctXrpFt8gfFYM9-5" vertex="1">
          <mxGeometry y="30" width="250" height="30" as="geometry" />
        </mxCell>
        <mxCell id="yLPHmwctXrpFt8gfFYM9-8" value="empreNom VARCHAR (50) NOT NULL" style="text;strokeColor=none;fillColor=none;align=left;verticalAlign=middle;spacingLeft=4;spacingRight=4;overflow=hidden;points=[[0,0.5],[1,0.5]];portConstraint=eastwest;rotatable=0;whiteSpace=wrap;html=1;" parent="yLPHmwctXrpFt8gfFYM9-5" vertex="1">
          <mxGeometry y="60" width="250" height="30" as="geometry" />
        </mxCell>
        <mxCell id="yLPHmwctXrpFt8gfFYM9-9" value="empreDir VARCHAR (80) NOT NULL" style="text;strokeColor=none;fillColor=none;align=left;verticalAlign=middle;spacingLeft=4;spacingRight=4;overflow=hidden;points=[[0,0.5],[1,0.5]];portConstraint=eastwest;rotatable=0;whiteSpace=wrap;html=1;" parent="yLPHmwctXrpFt8gfFYM9-5" vertex="1">
          <mxGeometry y="90" width="250" height="30" as="geometry" />
        </mxCell>
        <mxCell id="ivB_Veweyuw7Kfkp-1CT-13" value="empreTel VARCHAR (10)&amp;nbsp;NOT NULL" style="text;strokeColor=none;fillColor=none;align=left;verticalAlign=middle;spacingLeft=4;spacingRight=4;overflow=hidden;points=[[0,0.5],[1,0.5]];portConstraint=eastwest;rotatable=0;whiteSpace=wrap;html=1;" parent="yLPHmwctXrpFt8gfFYM9-5" vertex="1">
          <mxGeometry y="120" width="250" height="30" as="geometry" />
        </mxCell>
        <mxCell id="ivB_Veweyuw7Kfkp-1CT-14" value="empreCel VARCHAR (10)&amp;nbsp;NOT NULL" style="text;strokeColor=none;fillColor=none;align=left;verticalAlign=middle;spacingLeft=4;spacingRight=4;overflow=hidden;points=[[0,0.5],[1,0.5]];portConstraint=eastwest;rotatable=0;whiteSpace=wrap;html=1;" parent="yLPHmwctXrpFt8gfFYM9-5" vertex="1">
          <mxGeometry y="150" width="250" height="30" as="geometry" />
        </mxCell>
        <mxCell id="yLPHmwctXrpFt8gfFYM9-11" value="empreEma VARCHAR (50) NOT NULL" style="text;strokeColor=none;fillColor=none;align=left;verticalAlign=middle;spacingLeft=4;spacingRight=4;overflow=hidden;points=[[0,0.5],[1,0.5]];portConstraint=eastwest;rotatable=0;whiteSpace=wrap;html=1;" parent="yLPHmwctXrpFt8gfFYM9-5" vertex="1">
          <mxGeometry y="180" width="250" height="30" as="geometry" />
        </mxCell>
        <mxCell id="P0X9lRQ6gSxI_ii8KuhD-1" value="numFacIni DECIMAL (5,0) NOT NULL" style="text;strokeColor=none;fillColor=none;align=left;verticalAlign=middle;spacingLeft=4;spacingRight=4;overflow=hidden;points=[[0,0.5],[1,0.5]];portConstraint=eastwest;rotatable=0;whiteSpace=wrap;html=1;" vertex="1" parent="yLPHmwctXrpFt8gfFYM9-5">
          <mxGeometry y="210" width="250" height="30" as="geometry" />
        </mxCell>
        <mxCell id="P0X9lRQ6gSxI_ii8KuhD-2" value="numFacFin DECIMAL (5,0)&amp;nbsp;NOT NULL" style="text;strokeColor=none;fillColor=none;align=left;verticalAlign=middle;spacingLeft=4;spacingRight=4;overflow=hidden;points=[[0,0.5],[1,0.5]];portConstraint=eastwest;rotatable=0;whiteSpace=wrap;html=1;" vertex="1" parent="yLPHmwctXrpFt8gfFYM9-5">
          <mxGeometry y="240" width="250" height="30" as="geometry" />
        </mxCell>
        <mxCell id="P0X9lRQ6gSxI_ii8KuhD-3" value="numFacFal DECIMAL (5,0)&amp;nbsp;NOT NULL" style="text;strokeColor=none;fillColor=none;align=left;verticalAlign=middle;spacingLeft=4;spacingRight=4;overflow=hidden;points=[[0,0.5],[1,0.5]];portConstraint=eastwest;rotatable=0;whiteSpace=wrap;html=1;" vertex="1" parent="yLPHmwctXrpFt8gfFYM9-5">
          <mxGeometry y="270" width="250" height="30" as="geometry" />
        </mxCell>
        <mxCell id="P0X9lRQ6gSxI_ii8KuhD-4" value="porcenIva DECIMAL (2,0)&amp;nbsp;NOT NULL" style="text;strokeColor=none;fillColor=none;align=left;verticalAlign=middle;spacingLeft=4;spacingRight=4;overflow=hidden;points=[[0,0.5],[1,0.5]];portConstraint=eastwest;rotatable=0;whiteSpace=wrap;html=1;" vertex="1" parent="yLPHmwctXrpFt8gfFYM9-5">
          <mxGeometry y="300" width="250" height="30" as="geometry" />
        </mxCell>
        <mxCell id="P0X9lRQ6gSxI_ii8KuhD-5" value="redPunDes DECIMAL (4,0)&amp;nbsp;NOT NULL" style="text;strokeColor=none;fillColor=none;align=left;verticalAlign=middle;spacingLeft=4;spacingRight=4;overflow=hidden;points=[[0,0.5],[1,0.5]];portConstraint=eastwest;rotatable=0;whiteSpace=wrap;html=1;" vertex="1" parent="yLPHmwctXrpFt8gfFYM9-5">
          <mxGeometry y="330" width="250" height="30" as="geometry" />
        </mxCell>
        <mxCell id="P0X9lRQ6gSxI_ii8KuhD-6" value="redPunDom DECIMAL (4,0)&amp;nbsp;NOT NULL" style="text;strokeColor=none;fillColor=none;align=left;verticalAlign=middle;spacingLeft=4;spacingRight=4;overflow=hidden;points=[[0,0.5],[1,0.5]];portConstraint=eastwest;rotatable=0;whiteSpace=wrap;html=1;" vertex="1" parent="yLPHmwctXrpFt8gfFYM9-5">
          <mxGeometry y="360" width="250" height="30" as="geometry" />
        </mxCell>
        <mxCell id="P0X9lRQ6gSxI_ii8KuhD-7" value="adminCon VARCHAR (300) DEFAULT NULL" style="text;strokeColor=none;fillColor=none;align=left;verticalAlign=middle;spacingLeft=4;spacingRight=4;overflow=hidden;points=[[0,0.5],[1,0.5]];portConstraint=eastwest;rotatable=0;whiteSpace=wrap;html=1;" vertex="1" parent="yLPHmwctXrpFt8gfFYM9-5">
          <mxGeometry y="390" width="250" height="30" as="geometry" />
        </mxCell>
        <mxCell id="P0X9lRQ6gSxI_ii8KuhD-8" value="tiempoSalir DECIMAL (2,0) NOT NULL" style="text;strokeColor=none;fillColor=none;align=left;verticalAlign=middle;spacingLeft=4;spacingRight=4;overflow=hidden;points=[[0,0.5],[1,0.5]];portConstraint=eastwest;rotatable=0;whiteSpace=wrap;html=1;" vertex="1" parent="yLPHmwctXrpFt8gfFYM9-5">
          <mxGeometry y="420" width="250" height="30" as="geometry" />
        </mxCell>
        <mxCell id="P0X9lRQ6gSxI_ii8KuhD-9" value="sesionActiva BOOLEAN NOT NULL&lt;div&gt;DEFAULT FALSE&lt;/div&gt;" style="text;strokeColor=none;fillColor=none;align=left;verticalAlign=middle;spacingLeft=4;spacingRight=4;overflow=hidden;points=[[0,0.5],[1,0.5]];portConstraint=eastwest;rotatable=0;whiteSpace=wrap;html=1;" vertex="1" parent="yLPHmwctXrpFt8gfFYM9-5">
          <mxGeometry y="450" width="250" height="30" as="geometry" />
        </mxCell>
        <mxCell id="MN3j87kPTeBehLGBgUPZ-33" value="DetallePedido" style="swimlane;fontStyle=0;childLayout=stackLayout;horizontal=1;startSize=30;horizontalStack=0;resizeParent=1;resizeParentMax=0;resizeLast=0;collapsible=1;marginBottom=0;whiteSpace=wrap;html=1;fillColor=#ffcd28;strokeColor=#d79b00;gradientColor=#ffa500;" parent="1" vertex="1">
          <mxGeometry x="220" y="10" width="270" height="210" as="geometry" />
        </mxCell>
        <mxCell id="MN3j87kPTeBehLGBgUPZ-34" value="&lt;u&gt;numPedido DECIMAL (5,0) NOT NULL&lt;/u&gt;&amp;nbsp; &amp;nbsp; &amp;nbsp;&lt;b&gt;PK&amp;nbsp;&lt;/b&gt;FK" style="text;strokeColor=none;fillColor=none;align=left;verticalAlign=middle;spacingLeft=4;spacingRight=4;overflow=hidden;points=[[0,0.5],[1,0.5]];portConstraint=eastwest;rotatable=0;whiteSpace=wrap;html=1;" parent="MN3j87kPTeBehLGBgUPZ-33" vertex="1">
          <mxGeometry y="30" width="270" height="30" as="geometry" />
        </mxCell>
        <mxCell id="MN3j87kPTeBehLGBgUPZ-35" value="&lt;u&gt;nitProvee VARCHAR (10) NOT NULL&lt;/u&gt;&amp;nbsp; &amp;nbsp; &amp;nbsp; &amp;nbsp;&lt;b&gt;PK&amp;nbsp;&lt;/b&gt;FK" style="text;strokeColor=none;fillColor=none;align=left;verticalAlign=middle;spacingLeft=4;spacingRight=4;overflow=hidden;points=[[0,0.5],[1,0.5]];portConstraint=eastwest;rotatable=0;whiteSpace=wrap;html=1;" parent="MN3j87kPTeBehLGBgUPZ-33" vertex="1">
          <mxGeometry y="60" width="270" height="30" as="geometry" />
        </mxCell>
        <mxCell id="MN3j87kPTeBehLGBgUPZ-36" value="&lt;u&gt;codProduc VARCHAR (30) NOT NULL&amp;nbsp;&lt;/u&gt;&amp;nbsp; &amp;nbsp;&amp;nbsp;&lt;b&gt;PK&amp;nbsp;&lt;/b&gt;FK" style="text;strokeColor=none;fillColor=none;align=left;verticalAlign=middle;spacingLeft=4;spacingRight=4;overflow=hidden;points=[[0,0.5],[1,0.5]];portConstraint=eastwest;rotatable=0;whiteSpace=wrap;html=1;" parent="MN3j87kPTeBehLGBgUPZ-33" vertex="1">
          <mxGeometry y="90" width="270" height="30" as="geometry" />
        </mxCell>
        <mxCell id="MN3j87kPTeBehLGBgUPZ-37" value="detPedCan DECIMAL (3,0) NOT NULL" style="text;strokeColor=none;fillColor=none;align=left;verticalAlign=middle;spacingLeft=4;spacingRight=4;overflow=hidden;points=[[0,0.5],[1,0.5]];portConstraint=eastwest;rotatable=0;whiteSpace=wrap;html=1;" parent="MN3j87kPTeBehLGBgUPZ-33" vertex="1">
          <mxGeometry y="120" width="270" height="30" as="geometry" />
        </mxCell>
        <mxCell id="Hx_mXP-tW_U6W2S-rnSu-28" value="detPedCos DECIMAL (7,0) NOT NULL" style="text;strokeColor=none;fillColor=none;align=left;verticalAlign=middle;spacingLeft=4;spacingRight=4;overflow=hidden;points=[[0,0.5],[1,0.5]];portConstraint=eastwest;rotatable=0;whiteSpace=wrap;html=1;" parent="MN3j87kPTeBehLGBgUPZ-33" vertex="1">
          <mxGeometry y="150" width="270" height="30" as="geometry" />
        </mxCell>
        <mxCell id="MN3j87kPTeBehLGBgUPZ-38" value="detPedValPar DECIMAL (8,0) NOT NULL" style="text;strokeColor=none;fillColor=none;align=left;verticalAlign=middle;spacingLeft=4;spacingRight=4;overflow=hidden;points=[[0,0.5],[1,0.5]];portConstraint=eastwest;rotatable=0;whiteSpace=wrap;html=1;" parent="MN3j87kPTeBehLGBgUPZ-33" vertex="1">
          <mxGeometry y="180" width="270" height="30" as="geometry" />
        </mxCell>
        <mxCell id="MN3j87kPTeBehLGBgUPZ-40" value="" style="edgeStyle=orthogonalEdgeStyle;fontSize=12;html=1;endArrow=ERoneToMany;rounded=0;exitX=0;exitY=0.5;exitDx=0;exitDy=0;startSize=6;endSize=9;entryX=0;entryY=0.667;entryDx=0;entryDy=0;entryPerimeter=0;" parent="1" edge="1">
          <mxGeometry width="100" height="100" relative="1" as="geometry">
            <mxPoint x="230" y="305" as="sourcePoint" />
            <mxPoint x="220.00000000000023" y="60.00999999999999" as="targetPoint" />
            <Array as="points">
              <mxPoint x="190" y="305" />
              <mxPoint x="190" y="60" />
            </Array>
          </mxGeometry>
        </mxCell>
        <mxCell id="MN3j87kPTeBehLGBgUPZ-41" value="" style="edgeStyle=orthogonalEdgeStyle;fontSize=12;html=1;endArrow=ERoneToMany;rounded=0;entryX=1;entryY=0.5;entryDx=0;entryDy=0;startSize=6;endSize=9;exitX=0;exitY=0.667;exitDx=0;exitDy=0;exitPerimeter=0;jumpStyle=arc;jumpSize=15;" parent="1" source="UHW693a0Wnq4BT_KecG--28" target="MN3j87kPTeBehLGBgUPZ-36" edge="1">
          <mxGeometry width="100" height="100" relative="1" as="geometry">
            <mxPoint x="590" y="310" as="sourcePoint" />
            <mxPoint x="615" y="-60" as="targetPoint" />
            <Array as="points">
              <mxPoint x="540" y="310" />
              <mxPoint x="540" y="115" />
            </Array>
          </mxGeometry>
        </mxCell>
        <mxCell id="bvKT32oD0-qzsxiZBk1q-36" value="Envio" style="swimlane;fontStyle=0;childLayout=stackLayout;horizontal=1;startSize=30;horizontalStack=0;resizeParent=1;resizeParentMax=0;resizeLast=0;collapsible=1;marginBottom=0;whiteSpace=wrap;html=1;fillColor=#ffcd28;strokeColor=#d79b00;gradientColor=#ffa500;" parent="1" vertex="1">
          <mxGeometry x="605" y="-920" width="295" height="640" as="geometry" />
        </mxCell>
        <mxCell id="bvKT32oD0-qzsxiZBk1q-37" value="&lt;u&gt;envioNum DECIMAL (7,0) NOT NULL&lt;/u&gt;&amp;nbsp; &amp;nbsp; &amp;nbsp; &amp;nbsp; &amp;nbsp; &amp;nbsp; &amp;nbsp; &amp;nbsp; &amp;nbsp;&amp;nbsp;&lt;b&gt;PK&lt;/b&gt;" style="text;strokeColor=none;fillColor=none;align=left;verticalAlign=middle;spacingLeft=4;spacingRight=4;overflow=hidden;points=[[0,0.5],[1,0.5]];portConstraint=eastwest;rotatable=0;whiteSpace=wrap;html=1;" parent="bvKT32oD0-qzsxiZBk1q-36" vertex="1">
          <mxGeometry y="30" width="295" height="30" as="geometry" />
        </mxCell>
        <mxCell id="bvKT32oD0-qzsxiZBk1q-38" value="&lt;u&gt;numVenta&amp;nbsp;DECIMAL (5,0) NOT NULL&lt;/u&gt;&amp;nbsp; &amp;nbsp; &amp;nbsp; &amp;nbsp; &amp;nbsp; &amp;nbsp; &amp;nbsp; &amp;nbsp; &amp;nbsp; F&lt;b&gt;K&lt;/b&gt;&amp;nbsp;" style="text;strokeColor=none;fillColor=none;align=left;verticalAlign=middle;spacingLeft=4;spacingRight=4;overflow=hidden;points=[[0,0.5],[1,0.5]];portConstraint=eastwest;rotatable=0;whiteSpace=wrap;html=1;" parent="bvKT32oD0-qzsxiZBk1q-36" vertex="1">
          <mxGeometry y="60" width="295" height="30" as="geometry" />
        </mxCell>
        <mxCell id="61FQVvXKAMuJR3-rqrtT-2" value="&lt;u&gt;docUsuario&amp;nbsp;&amp;nbsp;VARCHAR (10) DEFAULT NULL&lt;/u&gt;&amp;nbsp; &amp;nbsp; &amp;nbsp; F&lt;b&gt;K&lt;/b&gt;&amp;nbsp;" style="text;strokeColor=none;fillColor=none;align=left;verticalAlign=middle;spacingLeft=4;spacingRight=4;overflow=hidden;points=[[0,0.5],[1,0.5]];portConstraint=eastwest;rotatable=0;whiteSpace=wrap;html=1;" parent="bvKT32oD0-qzsxiZBk1q-36" vertex="1">
          <mxGeometry y="90" width="295" height="30" as="geometry" />
        </mxCell>
        <mxCell id="Hx_mXP-tW_U6W2S-rnSu-19" value="&lt;u style=&quot;border-color: var(--border-color);&quot;&gt;rolUsuario VARCHAR (15) DEFAULT NULL&lt;/u&gt;&amp;nbsp; &amp;nbsp; &amp;nbsp; &amp;nbsp; &amp;nbsp;F&lt;b style=&quot;border-color: var(--border-color);&quot;&gt;K&lt;/b&gt;&amp;nbsp;" style="text;strokeColor=none;fillColor=none;align=left;verticalAlign=middle;spacingLeft=4;spacingRight=4;overflow=hidden;points=[[0,0.5],[1,0.5]];portConstraint=eastwest;rotatable=0;whiteSpace=wrap;html=1;" parent="bvKT32oD0-qzsxiZBk1q-36" vertex="1">
          <mxGeometry y="120" width="295" height="30" as="geometry" />
        </mxCell>
        <mxCell id="bvKT32oD0-qzsxiZBk1q-39" value="&lt;u&gt;idCiudad DECIMAL (5,0)&amp;nbsp;NOT NULL&lt;/u&gt;&amp;nbsp; &amp;nbsp; &amp;nbsp; &amp;nbsp; &amp;nbsp; &amp;nbsp; &amp;nbsp; &amp;nbsp; &amp;nbsp; &amp;nbsp; F&lt;b&gt;K&lt;/b&gt;&amp;nbsp;" style="text;strokeColor=none;fillColor=none;align=left;verticalAlign=middle;spacingLeft=4;spacingRight=4;overflow=hidden;points=[[0,0.5],[1,0.5]];portConstraint=eastwest;rotatable=0;whiteSpace=wrap;html=1;" parent="bvKT32oD0-qzsxiZBk1q-36" vertex="1">
          <mxGeometry y="150" width="295" height="30" as="geometry" />
        </mxCell>
        <mxCell id="ivB_Veweyuw7Kfkp-1CT-24" value="&lt;u&gt;nitEmpreTra VARCHAR (10) DEFAULT NULL&lt;/u&gt;&amp;nbsp; &amp;nbsp; &amp;nbsp; F&lt;b&gt;K&lt;/b&gt;" style="text;strokeColor=none;fillColor=none;align=left;verticalAlign=middle;spacingLeft=4;spacingRight=4;overflow=hidden;points=[[0,0.5],[1,0.5]];portConstraint=eastwest;rotatable=0;whiteSpace=wrap;html=1;" parent="bvKT32oD0-qzsxiZBk1q-36" vertex="1">
          <mxGeometry y="180" width="295" height="30" as="geometry" />
        </mxCell>
        <mxCell id="ivB_Veweyuw7Kfkp-1CT-25" value="envioDocDes VARCHAR (10) NOT NULL" style="text;strokeColor=none;fillColor=none;align=left;verticalAlign=middle;spacingLeft=4;spacingRight=4;overflow=hidden;points=[[0,0.5],[1,0.5]];portConstraint=eastwest;rotatable=0;whiteSpace=wrap;html=1;" parent="bvKT32oD0-qzsxiZBk1q-36" vertex="1">
          <mxGeometry y="210" width="295" height="30" as="geometry" />
        </mxCell>
        <mxCell id="bvKT32oD0-qzsxiZBk1q-42" value="envioNomDes VARCHAR (50) NOT NULL" style="text;strokeColor=none;fillColor=none;align=left;verticalAlign=middle;spacingLeft=4;spacingRight=4;overflow=hidden;points=[[0,0.5],[1,0.5]];portConstraint=eastwest;rotatable=0;whiteSpace=wrap;html=1;" parent="bvKT32oD0-qzsxiZBk1q-36" vertex="1">
          <mxGeometry y="240" width="295" height="40" as="geometry" />
        </mxCell>
        <mxCell id="Hx_mXP-tW_U6W2S-rnSu-21" value="envioDirDes VARCHAR (80) NOT NULL" style="text;strokeColor=none;fillColor=none;align=left;verticalAlign=middle;spacingLeft=4;spacingRight=4;overflow=hidden;points=[[0,0.5],[1,0.5]];portConstraint=eastwest;rotatable=0;whiteSpace=wrap;html=1;" parent="bvKT32oD0-qzsxiZBk1q-36" vertex="1">
          <mxGeometry y="280" width="295" height="40" as="geometry" />
        </mxCell>
        <mxCell id="Hx_mXP-tW_U6W2S-rnSu-22" value="envioTelDes VARCHAR (10) NOT NULL" style="text;strokeColor=none;fillColor=none;align=left;verticalAlign=middle;spacingLeft=4;spacingRight=4;overflow=hidden;points=[[0,0.5],[1,0.5]];portConstraint=eastwest;rotatable=0;whiteSpace=wrap;html=1;" parent="bvKT32oD0-qzsxiZBk1q-36" vertex="1">
          <mxGeometry y="320" width="295" height="40" as="geometry" />
        </mxCell>
        <mxCell id="Hx_mXP-tW_U6W2S-rnSu-23" value="envioPre DECIMAL (5,0) NOT NULL" style="text;strokeColor=none;fillColor=none;align=left;verticalAlign=middle;spacingLeft=4;spacingRight=4;overflow=hidden;points=[[0,0.5],[1,0.5]];portConstraint=eastwest;rotatable=0;whiteSpace=wrap;html=1;" parent="bvKT32oD0-qzsxiZBk1q-36" vertex="1">
          <mxGeometry y="360" width="295" height="40" as="geometry" />
        </mxCell>
        <mxCell id="PfbbUTTBOxwGK-6L6V0u-2" value="envioObs VARCHAR (150) DEFAULT NULL" style="text;strokeColor=none;fillColor=none;align=left;verticalAlign=middle;spacingLeft=4;spacingRight=4;overflow=hidden;points=[[0,0.5],[1,0.5]];portConstraint=eastwest;rotatable=0;whiteSpace=wrap;html=1;" parent="bvKT32oD0-qzsxiZBk1q-36" vertex="1">
          <mxGeometry y="400" width="295" height="40" as="geometry" />
        </mxCell>
        <mxCell id="Hx_mXP-tW_U6W2S-rnSu-25" value="envioSal BOOLEAN&amp;nbsp; NOT NULL DEFAULT FALSE" style="text;strokeColor=none;fillColor=none;align=left;verticalAlign=middle;spacingLeft=4;spacingRight=4;overflow=hidden;points=[[0,0.5],[1,0.5]];portConstraint=eastwest;rotatable=0;whiteSpace=wrap;html=1;" parent="bvKT32oD0-qzsxiZBk1q-36" vertex="1">
          <mxGeometry y="440" width="295" height="40" as="geometry" />
        </mxCell>
        <mxCell id="P0X9lRQ6gSxI_ii8KuhD-111" value="fec_salida TIMESTAMP NULL DEFAULT NULL" style="text;strokeColor=none;fillColor=none;align=left;verticalAlign=middle;spacingLeft=4;spacingRight=4;overflow=hidden;points=[[0,0.5],[1,0.5]];portConstraint=eastwest;rotatable=0;whiteSpace=wrap;html=1;" vertex="1" parent="bvKT32oD0-qzsxiZBk1q-36">
          <mxGeometry y="480" width="295" height="40" as="geometry" />
        </mxCell>
        <mxCell id="P0X9lRQ6gSxI_ii8KuhD-115" value="envioEnt BOOLEAN NOT NULL DEFAULT FALSE" style="text;strokeColor=none;fillColor=none;align=left;verticalAlign=middle;spacingLeft=4;spacingRight=4;overflow=hidden;points=[[0,0.5],[1,0.5]];portConstraint=eastwest;rotatable=0;whiteSpace=wrap;html=1;" vertex="1" parent="bvKT32oD0-qzsxiZBk1q-36">
          <mxGeometry y="520" width="295" height="40" as="geometry" />
        </mxCell>
        <mxCell id="P0X9lRQ6gSxI_ii8KuhD-116" value="fec_entrega TIMESTAMP NULL DEFAULT NULL" style="text;strokeColor=none;fillColor=none;align=left;verticalAlign=middle;spacingLeft=4;spacingRight=4;overflow=hidden;points=[[0,0.5],[1,0.5]];portConstraint=eastwest;rotatable=0;whiteSpace=wrap;html=1;" vertex="1" parent="bvKT32oD0-qzsxiZBk1q-36">
          <mxGeometry y="560" width="295" height="40" as="geometry" />
        </mxCell>
        <mxCell id="P0X9lRQ6gSxI_ii8KuhD-117" value="envioRut VARCHAR (50) DEFAULT NULL" style="text;strokeColor=none;fillColor=none;align=left;verticalAlign=middle;spacingLeft=4;spacingRight=4;overflow=hidden;points=[[0,0.5],[1,0.5]];portConstraint=eastwest;rotatable=0;whiteSpace=wrap;html=1;" vertex="1" parent="bvKT32oD0-qzsxiZBk1q-36">
          <mxGeometry y="600" width="295" height="40" as="geometry" />
        </mxCell>
        <mxCell id="bvKT32oD0-qzsxiZBk1q-43" value="EmpresaTransporte" style="swimlane;fontStyle=0;childLayout=stackLayout;horizontal=1;startSize=30;horizontalStack=0;resizeParent=1;resizeParentMax=0;resizeLast=0;collapsible=1;marginBottom=0;whiteSpace=wrap;html=1;fillColor=#ffcd28;strokeColor=#d79b00;gradientColor=#ffa500;" parent="1" vertex="1">
          <mxGeometry x="1020" y="-770" width="270" height="150" as="geometry" />
        </mxCell>
        <mxCell id="bvKT32oD0-qzsxiZBk1q-44" value="&lt;u&gt;empreTraNit VARCHAR (10) NOT NULL&lt;/u&gt;&amp;nbsp; &amp;nbsp; &amp;nbsp; &amp;nbsp;&lt;b&gt;PK&lt;/b&gt;" style="text;strokeColor=none;fillColor=none;align=left;verticalAlign=middle;spacingLeft=4;spacingRight=4;overflow=hidden;points=[[0,0.5],[1,0.5]];portConstraint=eastwest;rotatable=0;whiteSpace=wrap;html=1;" parent="bvKT32oD0-qzsxiZBk1q-43" vertex="1">
          <mxGeometry y="30" width="270" height="30" as="geometry" />
        </mxCell>
        <mxCell id="bvKT32oD0-qzsxiZBk1q-45" value="empreTraNom&amp;nbsp;VARCHAR (25) NOT NULL&amp;nbsp; &amp;nbsp;" style="text;strokeColor=none;fillColor=none;align=left;verticalAlign=middle;spacingLeft=4;spacingRight=4;overflow=hidden;points=[[0,0.5],[1,0.5]];portConstraint=eastwest;rotatable=0;whiteSpace=wrap;html=1;" parent="bvKT32oD0-qzsxiZBk1q-43" vertex="1">
          <mxGeometry y="60" width="270" height="30" as="geometry" />
        </mxCell>
        <mxCell id="bvKT32oD0-qzsxiZBk1q-46" value="empreTraTel&amp;nbsp; VARCHAR (10)&amp;nbsp;NOT NULL&amp;nbsp;" style="text;strokeColor=none;fillColor=none;align=left;verticalAlign=middle;spacingLeft=4;spacingRight=4;overflow=hidden;points=[[0,0.5],[1,0.5]];portConstraint=eastwest;rotatable=0;whiteSpace=wrap;html=1;" parent="bvKT32oD0-qzsxiZBk1q-43" vertex="1">
          <mxGeometry y="90" width="270" height="30" as="geometry" />
        </mxCell>
        <mxCell id="P0X9lRQ6gSxI_ii8KuhD-110" value="empTraAct BOOLEAN NOT NULL DEFAULT TRUE&amp;nbsp;" style="text;strokeColor=none;fillColor=none;align=left;verticalAlign=middle;spacingLeft=4;spacingRight=4;overflow=hidden;points=[[0,0.5],[1,0.5]];portConstraint=eastwest;rotatable=0;whiteSpace=wrap;html=1;" vertex="1" parent="bvKT32oD0-qzsxiZBk1q-43">
          <mxGeometry y="120" width="270" height="30" as="geometry" />
        </mxCell>
        <mxCell id="bvKT32oD0-qzsxiZBk1q-50" value="" style="edgeStyle=orthogonalEdgeStyle;fontSize=12;html=1;endArrow=ERoneToMany;rounded=0;entryX=1;entryY=0.5;entryDx=0;entryDy=0;exitX=0;exitY=0.5;exitDx=0;exitDy=0;startSize=6;endSize=9;" parent="1" source="bvKT32oD0-qzsxiZBk1q-44" target="ivB_Veweyuw7Kfkp-1CT-24" edge="1">
          <mxGeometry width="100" height="100" relative="1" as="geometry">
            <mxPoint x="490" y="-455" as="sourcePoint" />
            <mxPoint x="615" y="-425" as="targetPoint" />
            <Array as="points">
              <mxPoint x="1020" y="-725" />
            </Array>
          </mxGeometry>
        </mxCell>
        <mxCell id="bvKT32oD0-qzsxiZBk1q-52" value="" style="edgeStyle=orthogonalEdgeStyle;fontSize=12;html=1;endArrow=ERoneToMany;rounded=0;entryX=0;entryY=0.5;entryDx=0;entryDy=0;exitX=0.996;exitY=0.2;exitDx=0;exitDy=0;startSize=6;endSize=9;exitPerimeter=0;" parent="1" source="UHW693a0Wnq4BT_KecG--10" target="bvKT32oD0-qzsxiZBk1q-38" edge="1">
          <mxGeometry width="100" height="100" relative="1" as="geometry">
            <mxPoint x="490" y="-455" as="sourcePoint" />
            <mxPoint x="615" y="-425" as="targetPoint" />
            <Array as="points">
              <mxPoint x="580" y="-724" />
              <mxPoint x="580" y="-845" />
            </Array>
          </mxGeometry>
        </mxCell>
        <mxCell id="ivB_Veweyuw7Kfkp-1CT-15" value="RedencionPuntos" style="swimlane;fontStyle=0;childLayout=stackLayout;horizontal=1;startSize=30;horizontalStack=0;resizeParent=1;resizeParentMax=0;resizeLast=0;collapsible=1;marginBottom=0;whiteSpace=wrap;html=1;fillColor=#ffcd28;strokeColor=#d79b00;gradientColor=#ffa500;" parent="1" vertex="1">
          <mxGeometry x="625" y="-240" width="255" height="180" as="geometry" />
        </mxCell>
        <mxCell id="ivB_Veweyuw7Kfkp-1CT-16" value="&lt;u&gt;redencNum DECIMAL (2,0) NOT NULL&lt;/u&gt;&amp;nbsp; &amp;nbsp; &amp;nbsp;&lt;b&gt;PK&lt;/b&gt;&amp;nbsp;" style="text;strokeColor=none;fillColor=none;align=left;verticalAlign=middle;spacingLeft=4;spacingRight=4;overflow=hidden;points=[[0,0.5],[1,0.5]];portConstraint=eastwest;rotatable=0;whiteSpace=wrap;html=1;" parent="ivB_Veweyuw7Kfkp-1CT-15" vertex="1">
          <mxGeometry y="30" width="255" height="30" as="geometry" />
        </mxCell>
        <mxCell id="ivB_Veweyuw7Kfkp-1CT-17" value="&lt;u&gt;numVenta DECIMAL (5,0) NOT NULL&lt;/u&gt;&amp;nbsp; &amp;nbsp; &amp;nbsp; &amp;nbsp;FK" style="text;strokeColor=none;fillColor=none;align=left;verticalAlign=middle;spacingLeft=4;spacingRight=4;overflow=hidden;points=[[0,0.5],[1,0.5]];portConstraint=eastwest;rotatable=0;whiteSpace=wrap;html=1;" parent="ivB_Veweyuw7Kfkp-1CT-15" vertex="1">
          <mxGeometry y="60" width="255" height="30" as="geometry" />
        </mxCell>
        <mxCell id="P0X9lRQ6gSxI_ii8KuhD-109" value="redencPunRed DECIMAL (2,0) NOT NULL" style="text;strokeColor=none;fillColor=none;align=left;verticalAlign=middle;spacingLeft=4;spacingRight=4;overflow=hidden;points=[[0,0.5],[1,0.5]];portConstraint=eastwest;rotatable=0;whiteSpace=wrap;html=1;" vertex="1" parent="ivB_Veweyuw7Kfkp-1CT-15">
          <mxGeometry y="90" width="255" height="30" as="geometry" />
        </mxCell>
        <mxCell id="ivB_Veweyuw7Kfkp-1CT-18" value="redencDes&amp;nbsp; BOOLEAN NOT NULL" style="text;strokeColor=none;fillColor=none;align=left;verticalAlign=middle;spacingLeft=4;spacingRight=4;overflow=hidden;points=[[0,0.5],[1,0.5]];portConstraint=eastwest;rotatable=0;whiteSpace=wrap;html=1;" parent="ivB_Veweyuw7Kfkp-1CT-15" vertex="1">
          <mxGeometry y="120" width="255" height="30" as="geometry" />
        </mxCell>
        <mxCell id="ivB_Veweyuw7Kfkp-1CT-19" value="redencCan BOOLEAN&amp;nbsp; NOT NULL DEFAULT FALSE" style="text;strokeColor=none;fillColor=none;align=left;verticalAlign=middle;spacingLeft=4;spacingRight=4;overflow=hidden;points=[[0,0.5],[1,0.5]];portConstraint=eastwest;rotatable=0;whiteSpace=wrap;html=1;" parent="ivB_Veweyuw7Kfkp-1CT-15" vertex="1">
          <mxGeometry y="150" width="255" height="30" as="geometry" />
        </mxCell>
        <mxCell id="t3XefT4DrZrVAsHFot_A-2" value="Departamento" style="swimlane;fontStyle=0;childLayout=stackLayout;horizontal=1;startSize=30;horizontalStack=0;resizeParent=1;resizeParentMax=0;resizeLast=0;collapsible=1;marginBottom=0;whiteSpace=wrap;html=1;fillColor=#ffcd28;strokeColor=#d79b00;gradientColor=#ffa500;" parent="1" vertex="1">
          <mxGeometry x="-510" y="140" width="260" height="90" as="geometry" />
        </mxCell>
        <mxCell id="t3XefT4DrZrVAsHFot_A-3" value="&lt;u&gt;departId DECIMAL (2,0) NOT NULL&lt;/u&gt;&amp;nbsp; &amp;nbsp; &amp;nbsp; &amp;nbsp; &amp;nbsp; &amp;nbsp;&amp;nbsp;&lt;b&gt;PK&lt;/b&gt;" style="text;strokeColor=none;fillColor=none;align=left;verticalAlign=middle;spacingLeft=4;spacingRight=4;overflow=hidden;points=[[0,0.5],[1,0.5]];portConstraint=eastwest;rotatable=0;whiteSpace=wrap;html=1;" parent="t3XefT4DrZrVAsHFot_A-2" vertex="1">
          <mxGeometry y="30" width="260" height="30" as="geometry" />
        </mxCell>
        <mxCell id="t3XefT4DrZrVAsHFot_A-5" value="departNom VARCHAR (40) NOT NULL" style="text;strokeColor=none;fillColor=none;align=left;verticalAlign=middle;spacingLeft=4;spacingRight=4;overflow=hidden;points=[[0,0.5],[1,0.5]];portConstraint=eastwest;rotatable=0;whiteSpace=wrap;html=1;" parent="t3XefT4DrZrVAsHFot_A-2" vertex="1">
          <mxGeometry y="60" width="260" height="30" as="geometry" />
        </mxCell>
        <mxCell id="t3XefT4DrZrVAsHFot_A-6" value="" style="edgeStyle=orthogonalEdgeStyle;fontSize=12;html=1;endArrow=ERoneToMany;rounded=0;endSize=9;exitX=1;exitY=0.5;exitDx=0;exitDy=0;entryX=0;entryY=0.5;entryDx=0;entryDy=0;jumpStyle=arc;jumpSize=26;" parent="1" source="t3XefT4DrZrVAsHFot_A-3" target="t3XefT4DrZrVAsHFot_A-1" edge="1">
          <mxGeometry width="100" height="100" relative="1" as="geometry">
            <mxPoint x="-90" y="-75" as="sourcePoint" />
            <mxPoint x="-95" y="105" as="targetPoint" />
            <Array as="points">
              <mxPoint x="-220" y="185" />
              <mxPoint x="-220" y="185" />
            </Array>
          </mxGeometry>
        </mxCell>
        <mxCell id="61FQVvXKAMuJR3-rqrtT-3" value="" style="edgeStyle=orthogonalEdgeStyle;fontSize=12;html=1;endArrow=ERoneToMany;rounded=0;exitX=1.003;exitY=0.583;exitDx=0;exitDy=0;endSize=9;jumpStyle=arc;jumpSize=23;exitPerimeter=0;entryX=1;entryY=0.5;entryDx=0;entryDy=0;" parent="1" source="P0X9lRQ6gSxI_ii8KuhD-88" target="61FQVvXKAMuJR3-rqrtT-2" edge="1">
          <mxGeometry width="100" height="100" relative="1" as="geometry">
            <mxPoint x="138.5" y="-852.5899999999999" as="sourcePoint" />
            <mxPoint x="890" y="-830" as="targetPoint" />
            <Array as="points">
              <mxPoint x="150" y="-852" />
              <mxPoint x="150" y="-980" />
              <mxPoint x="950" y="-980" />
              <mxPoint x="950" y="-815" />
            </Array>
          </mxGeometry>
        </mxCell>
        <mxCell id="Hx_mXP-tW_U6W2S-rnSu-12" value="" style="edgeStyle=orthogonalEdgeStyle;fontSize=12;html=1;endArrow=ERoneToMany;rounded=0;entryX=0;entryY=0.5;entryDx=0;entryDy=0;exitX=1;exitY=0.5;exitDx=0;exitDy=0;startSize=6;endSize=9;" parent="1" source="UHW693a0Wnq4BT_KecG--10" target="ivB_Veweyuw7Kfkp-1CT-17" edge="1">
          <mxGeometry width="100" height="100" relative="1" as="geometry">
            <mxPoint x="500" y="-576" as="sourcePoint" />
            <mxPoint x="615" y="-90" as="targetPoint" />
            <Array as="points">
              <mxPoint x="580" y="-715" />
              <mxPoint x="580" y="-165" />
            </Array>
          </mxGeometry>
        </mxCell>
        <mxCell id="m10G8d942KZPUcmNIZu--1" value="LA CASA DE LA AMAROK" style="text;html=1;strokeColor=none;fillColor=none;align=center;verticalAlign=middle;whiteSpace=wrap;rounded=0;fontSize=19;fontColor=#994C00;" parent="1" vertex="1">
          <mxGeometry x="254" y="-1060" width="320" height="30" as="geometry" />
        </mxCell>
        <mxCell id="P0X9lRQ6gSxI_ii8KuhD-10" value="Excepciones" style="swimlane;fontStyle=0;childLayout=stackLayout;horizontal=1;startSize=30;horizontalStack=0;resizeParent=1;resizeParentMax=0;resizeLast=0;collapsible=1;marginBottom=0;whiteSpace=wrap;html=1;fillColor=#d5e8d4;strokeColor=#82b366;" vertex="1" parent="1">
          <mxGeometry x="-790" y="-420" width="250" height="90" as="geometry" />
        </mxCell>
        <mxCell id="P0X9lRQ6gSxI_ii8KuhD-11" value="&lt;u&gt;excepCod VARCHAR (5) NOT NULL&lt;/u&gt;&amp;nbsp; &amp;nbsp;&lt;b&gt;PK&lt;/b&gt;&amp;nbsp;" style="text;strokeColor=none;fillColor=none;align=left;verticalAlign=middle;spacingLeft=4;spacingRight=4;overflow=hidden;points=[[0,0.5],[1,0.5]];portConstraint=eastwest;rotatable=0;whiteSpace=wrap;html=1;" vertex="1" parent="P0X9lRQ6gSxI_ii8KuhD-10">
          <mxGeometry y="30" width="250" height="30" as="geometry" />
        </mxCell>
        <mxCell id="P0X9lRQ6gSxI_ii8KuhD-12" value="excepNom VARCHAR (100) NOT NULL" style="text;strokeColor=none;fillColor=none;align=left;verticalAlign=middle;spacingLeft=4;spacingRight=4;overflow=hidden;points=[[0,0.5],[1,0.5]];portConstraint=eastwest;rotatable=0;whiteSpace=wrap;html=1;" vertex="1" parent="P0X9lRQ6gSxI_ii8KuhD-10">
          <mxGeometry y="60" width="250" height="30" as="geometry" />
        </mxCell>
        <mxCell id="P0X9lRQ6gSxI_ii8KuhD-26" value="Contactenos" style="swimlane;fontStyle=0;childLayout=stackLayout;horizontal=1;startSize=30;horizontalStack=0;resizeParent=1;resizeParentMax=0;resizeLast=0;collapsible=1;marginBottom=0;whiteSpace=wrap;html=1;fillColor=#d5e8d4;strokeColor=#82b366;" vertex="1" parent="1">
          <mxGeometry x="-790" y="-310" width="250" height="210" as="geometry" />
        </mxCell>
        <mxCell id="P0X9lRQ6gSxI_ii8KuhD-27" value="&lt;u&gt;contacId DECIMAL (9,0) NOT NULL&lt;/u&gt;&amp;nbsp; &amp;nbsp;&lt;b&gt;PK&lt;/b&gt;&amp;nbsp;" style="text;strokeColor=none;fillColor=none;align=left;verticalAlign=middle;spacingLeft=4;spacingRight=4;overflow=hidden;points=[[0,0.5],[1,0.5]];portConstraint=eastwest;rotatable=0;whiteSpace=wrap;html=1;" vertex="1" parent="P0X9lRQ6gSxI_ii8KuhD-26">
          <mxGeometry y="30" width="250" height="30" as="geometry" />
        </mxCell>
        <mxCell id="P0X9lRQ6gSxI_ii8KuhD-28" value="contacNom VARCHAR (60) NOT NULL" style="text;strokeColor=none;fillColor=none;align=left;verticalAlign=middle;spacingLeft=4;spacingRight=4;overflow=hidden;points=[[0,0.5],[1,0.5]];portConstraint=eastwest;rotatable=0;whiteSpace=wrap;html=1;" vertex="1" parent="P0X9lRQ6gSxI_ii8KuhD-26">
          <mxGeometry y="60" width="250" height="30" as="geometry" />
        </mxCell>
        <mxCell id="P0X9lRQ6gSxI_ii8KuhD-29" value="contacTel VARCHAR (10) NOT NULL" style="text;strokeColor=none;fillColor=none;align=left;verticalAlign=middle;spacingLeft=4;spacingRight=4;overflow=hidden;points=[[0,0.5],[1,0.5]];portConstraint=eastwest;rotatable=0;whiteSpace=wrap;html=1;" vertex="1" parent="P0X9lRQ6gSxI_ii8KuhD-26">
          <mxGeometry y="90" width="250" height="30" as="geometry" />
        </mxCell>
        <mxCell id="P0X9lRQ6gSxI_ii8KuhD-30" value="contacEma VARCHAR (50)&amp;nbsp;NOT NULL" style="text;strokeColor=none;fillColor=none;align=left;verticalAlign=middle;spacingLeft=4;spacingRight=4;overflow=hidden;points=[[0,0.5],[1,0.5]];portConstraint=eastwest;rotatable=0;whiteSpace=wrap;html=1;" vertex="1" parent="P0X9lRQ6gSxI_ii8KuhD-26">
          <mxGeometry y="120" width="250" height="30" as="geometry" />
        </mxCell>
        <mxCell id="P0X9lRQ6gSxI_ii8KuhD-31" value="contacAsu VARCHAR (200)&amp;nbsp;NOT NULL" style="text;strokeColor=none;fillColor=none;align=left;verticalAlign=middle;spacingLeft=4;spacingRight=4;overflow=hidden;points=[[0,0.5],[1,0.5]];portConstraint=eastwest;rotatable=0;whiteSpace=wrap;html=1;" vertex="1" parent="P0X9lRQ6gSxI_ii8KuhD-26">
          <mxGeometry y="150" width="250" height="30" as="geometry" />
        </mxCell>
        <mxCell id="P0X9lRQ6gSxI_ii8KuhD-32" value="contacRev BOOLEAN NOT NULL DEFAULT FALSE" style="text;strokeColor=none;fillColor=none;align=left;verticalAlign=middle;spacingLeft=4;spacingRight=4;overflow=hidden;points=[[0,0.5],[1,0.5]];portConstraint=eastwest;rotatable=0;whiteSpace=wrap;html=1;" vertex="1" parent="P0X9lRQ6gSxI_ii8KuhD-26">
          <mxGeometry y="180" width="250" height="30" as="geometry" />
        </mxCell>
        <mxCell id="P0X9lRQ6gSxI_ii8KuhD-48" value="Linea" style="swimlane;fontStyle=0;childLayout=stackLayout;horizontal=1;startSize=30;horizontalStack=0;resizeParent=1;resizeParentMax=0;resizeLast=0;collapsible=1;marginBottom=0;whiteSpace=wrap;html=1;fillColor=#ffcd28;strokeColor=#d79b00;gradientColor=#ffa500;" vertex="1" parent="1">
          <mxGeometry x="980" y="380" width="230" height="90" as="geometry" />
        </mxCell>
        <mxCell id="P0X9lRQ6gSxI_ii8KuhD-49" value="&lt;u&gt;lineaId DECIMAL (2,0) NOT NULL&lt;/u&gt;&amp;nbsp; &amp;nbsp; &amp;nbsp;&amp;nbsp;&lt;b&gt;PK&lt;/b&gt;" style="text;strokeColor=none;fillColor=none;align=left;verticalAlign=middle;spacingLeft=4;spacingRight=4;overflow=hidden;points=[[0,0.5],[1,0.5]];portConstraint=eastwest;rotatable=0;whiteSpace=wrap;html=1;" vertex="1" parent="P0X9lRQ6gSxI_ii8KuhD-48">
          <mxGeometry y="30" width="230" height="30" as="geometry" />
        </mxCell>
        <mxCell id="P0X9lRQ6gSxI_ii8KuhD-50" value="lineaNom VARCHAR (30) NOT NULL" style="text;strokeColor=none;fillColor=none;align=left;verticalAlign=middle;spacingLeft=4;spacingRight=4;overflow=hidden;points=[[0,0.5],[1,0.5]];portConstraint=eastwest;rotatable=0;whiteSpace=wrap;html=1;" vertex="1" parent="P0X9lRQ6gSxI_ii8KuhD-48">
          <mxGeometry y="60" width="230" height="30" as="geometry" />
        </mxCell>
        <mxCell id="P0X9lRQ6gSxI_ii8KuhD-51" value="Marca" style="swimlane;fontStyle=0;childLayout=stackLayout;horizontal=1;startSize=30;horizontalStack=0;resizeParent=1;resizeParentMax=0;resizeLast=0;collapsible=1;marginBottom=0;whiteSpace=wrap;html=1;fillColor=#ffcd28;strokeColor=#d79b00;gradientColor=#ffa500;" vertex="1" parent="1">
          <mxGeometry x="980" y="500" width="240" height="90" as="geometry" />
        </mxCell>
        <mxCell id="P0X9lRQ6gSxI_ii8KuhD-52" value="&lt;u&gt;marcaId DECIMAL (3,0) NOT NULL&lt;/u&gt;&amp;nbsp; &amp;nbsp; &amp;nbsp;&amp;nbsp;&lt;b&gt;PK&lt;/b&gt;" style="text;strokeColor=none;fillColor=none;align=left;verticalAlign=middle;spacingLeft=4;spacingRight=4;overflow=hidden;points=[[0,0.5],[1,0.5]];portConstraint=eastwest;rotatable=0;whiteSpace=wrap;html=1;" vertex="1" parent="P0X9lRQ6gSxI_ii8KuhD-51">
          <mxGeometry y="30" width="240" height="30" as="geometry" />
        </mxCell>
        <mxCell id="P0X9lRQ6gSxI_ii8KuhD-53" value="marcaNom VARCHAR (30) NOT NULL" style="text;strokeColor=none;fillColor=none;align=left;verticalAlign=middle;spacingLeft=4;spacingRight=4;overflow=hidden;points=[[0,0.5],[1,0.5]];portConstraint=eastwest;rotatable=0;whiteSpace=wrap;html=1;" vertex="1" parent="P0X9lRQ6gSxI_ii8KuhD-51">
          <mxGeometry y="60" width="240" height="30" as="geometry" />
        </mxCell>
        <mxCell id="P0X9lRQ6gSxI_ii8KuhD-58" value="Bandeja" style="swimlane;fontStyle=0;childLayout=stackLayout;horizontal=1;startSize=30;horizontalStack=0;resizeParent=1;resizeParentMax=0;resizeLast=0;collapsible=1;marginBottom=0;whiteSpace=wrap;html=1;fillColor=#ffcd28;strokeColor=#d79b00;gradientColor=#ffa500;" vertex="1" parent="1">
          <mxGeometry x="1300" y="621" width="260" height="90" as="geometry" />
        </mxCell>
        <mxCell id="P0X9lRQ6gSxI_ii8KuhD-59" value="&lt;u&gt;nomEstant VARCHAR (2) NOT NULL&lt;/u&gt;&amp;nbsp;&amp;nbsp;&lt;b&gt;PK &lt;/b&gt;FK" style="text;strokeColor=none;fillColor=none;align=left;verticalAlign=middle;spacingLeft=4;spacingRight=4;overflow=hidden;points=[[0,0.5],[1,0.5]];portConstraint=eastwest;rotatable=0;whiteSpace=wrap;html=1;" vertex="1" parent="P0X9lRQ6gSxI_ii8KuhD-58">
          <mxGeometry y="30" width="260" height="30" as="geometry" />
        </mxCell>
        <mxCell id="P0X9lRQ6gSxI_ii8KuhD-60" value="&lt;u&gt;bandejaNum DECIMAL (2,0) NOT NULL&lt;/u&gt;&amp;nbsp; &amp;nbsp;&lt;b style=&quot;&quot;&gt;PK&lt;/b&gt;" style="text;strokeColor=none;fillColor=none;align=left;verticalAlign=middle;spacingLeft=4;spacingRight=4;overflow=hidden;points=[[0,0.5],[1,0.5]];portConstraint=eastwest;rotatable=0;whiteSpace=wrap;html=1;" vertex="1" parent="P0X9lRQ6gSxI_ii8KuhD-58">
          <mxGeometry y="60" width="260" height="30" as="geometry" />
        </mxCell>
        <mxCell id="P0X9lRQ6gSxI_ii8KuhD-61" value="Seccion" style="swimlane;fontStyle=0;childLayout=stackLayout;horizontal=1;startSize=30;horizontalStack=0;resizeParent=1;resizeParentMax=0;resizeLast=0;collapsible=1;marginBottom=0;whiteSpace=wrap;html=1;fillColor=#ffcd28;strokeColor=#d79b00;gradientColor=#ffa500;" vertex="1" parent="1">
          <mxGeometry x="980" y="621" width="270" height="120" as="geometry" />
        </mxCell>
        <mxCell id="P0X9lRQ6gSxI_ii8KuhD-62" value="&lt;u&gt;nomEstant VARCHAR (2) NOT NULL&lt;/u&gt;&amp;nbsp; &amp;nbsp; &amp;nbsp; &amp;nbsp;&lt;b&gt;PK &lt;/b&gt;FK" style="text;strokeColor=none;fillColor=none;align=left;verticalAlign=middle;spacingLeft=4;spacingRight=4;overflow=hidden;points=[[0,0.5],[1,0.5]];portConstraint=eastwest;rotatable=0;whiteSpace=wrap;html=1;" vertex="1" parent="P0X9lRQ6gSxI_ii8KuhD-61">
          <mxGeometry y="30" width="270" height="30" as="geometry" />
        </mxCell>
        <mxCell id="P0X9lRQ6gSxI_ii8KuhD-63" value="&lt;u&gt;numBandeja DECIMAL (2,0) NOT NULL&lt;/u&gt;&amp;nbsp; &amp;nbsp;&lt;b style=&quot;&quot;&gt;PK&amp;nbsp;&lt;/b&gt;FK" style="text;strokeColor=none;fillColor=none;align=left;verticalAlign=middle;spacingLeft=4;spacingRight=4;overflow=hidden;points=[[0,0.5],[1,0.5]];portConstraint=eastwest;rotatable=0;whiteSpace=wrap;html=1;" vertex="1" parent="P0X9lRQ6gSxI_ii8KuhD-61">
          <mxGeometry y="60" width="270" height="30" as="geometry" />
        </mxCell>
        <mxCell id="P0X9lRQ6gSxI_ii8KuhD-64" value="&lt;u&gt;seccionCod VARCHAR (5) NOT NULL&lt;/u&gt;&amp;nbsp; &amp;nbsp; &amp;nbsp;&amp;nbsp;&lt;b style=&quot;&quot;&gt;PK&lt;/b&gt;" style="text;strokeColor=none;fillColor=none;align=left;verticalAlign=middle;spacingLeft=4;spacingRight=4;overflow=hidden;points=[[0,0.5],[1,0.5]];portConstraint=eastwest;rotatable=0;whiteSpace=wrap;html=1;" vertex="1" parent="P0X9lRQ6gSxI_ii8KuhD-61">
          <mxGeometry y="90" width="270" height="30" as="geometry" />
        </mxCell>
        <mxCell id="P0X9lRQ6gSxI_ii8KuhD-76" value="" style="edgeStyle=orthogonalEdgeStyle;fontSize=12;html=1;endArrow=ERoneToMany;rounded=0;entryX=1;entryY=0.5;entryDx=0;entryDy=0;startSize=6;endSize=9;exitX=0;exitY=0.667;exitDx=0;exitDy=0;exitPerimeter=0;" edge="1" parent="1" source="P0X9lRQ6gSxI_ii8KuhD-64" target="P0X9lRQ6gSxI_ii8KuhD-69">
          <mxGeometry width="100" height="100" relative="1" as="geometry">
            <mxPoint x="960" y="850" as="sourcePoint" />
            <mxPoint x="880" y="500" as="targetPoint" />
            <Array as="points">
              <mxPoint x="980" y="730" />
              <mxPoint x="890" y="730" />
              <mxPoint x="890" y="485" />
            </Array>
          </mxGeometry>
        </mxCell>
        <mxCell id="P0X9lRQ6gSxI_ii8KuhD-79" value="" style="endArrow=none;html=1;rounded=0;jumpStyle=none;startArrow=ERoneToMany;startFill=0;edgeStyle=orthogonalEdgeStyle;entryX=0;entryY=0.5;entryDx=0;entryDy=0;exitX=1;exitY=0.5;exitDx=0;exitDy=0;" edge="1" parent="1" source="P0X9lRQ6gSxI_ii8KuhD-70" target="P0X9lRQ6gSxI_ii8KuhD-63">
          <mxGeometry width="50" height="50" relative="1" as="geometry">
            <mxPoint x="880" y="450" as="sourcePoint" />
            <mxPoint x="940" y="780" as="targetPoint" />
            <Array as="points">
              <mxPoint x="900" y="455" />
              <mxPoint x="900" y="696" />
            </Array>
          </mxGeometry>
        </mxCell>
        <mxCell id="P0X9lRQ6gSxI_ii8KuhD-80" value="" style="endArrow=none;html=1;rounded=0;jumpStyle=arc;startArrow=ERoneToMany;startFill=0;jumpSize=12;edgeStyle=orthogonalEdgeStyle;exitX=1;exitY=0.5;exitDx=0;exitDy=0;entryX=0;entryY=0.5;entryDx=0;entryDy=0;" edge="1" parent="1" source="P0X9lRQ6gSxI_ii8KuhD-62" target="P0X9lRQ6gSxI_ii8KuhD-59">
          <mxGeometry width="50" height="50" relative="1" as="geometry">
            <mxPoint x="1290" y="671" as="sourcePoint" />
            <mxPoint x="1270" y="551" as="targetPoint" />
            <Array as="points">
              <mxPoint x="1270" y="666" />
              <mxPoint x="1270" y="666" />
            </Array>
          </mxGeometry>
        </mxCell>
        <mxCell id="P0X9lRQ6gSxI_ii8KuhD-81" value="" style="endArrow=none;html=1;rounded=0;exitX=1;exitY=0.5;exitDx=0;exitDy=0;jumpStyle=arc;startArrow=ERoneToMany;startFill=0;jumpSize=12;entryX=0;entryY=0.5;entryDx=0;entryDy=0;" edge="1" parent="1" source="P0X9lRQ6gSxI_ii8KuhD-63" target="P0X9lRQ6gSxI_ii8KuhD-60">
          <mxGeometry width="50" height="50" relative="1" as="geometry">
            <mxPoint x="980" y="702" as="sourcePoint" />
            <mxPoint x="1270" y="581" as="targetPoint" />
          </mxGeometry>
        </mxCell>
        <mxCell id="P0X9lRQ6gSxI_ii8KuhD-82" value="" style="endArrow=none;html=1;rounded=0;exitX=1;exitY=0.5;exitDx=0;exitDy=0;jumpStyle=none;startArrow=ERoneToMany;startFill=0;edgeStyle=orthogonalEdgeStyle;entryX=0.002;entryY=0.617;entryDx=0;entryDy=0;entryPerimeter=0;" edge="1" parent="1" source="P0X9lRQ6gSxI_ii8KuhD-67" target="P0X9lRQ6gSxI_ii8KuhD-62">
          <mxGeometry width="50" height="50" relative="1" as="geometry">
            <mxPoint x="870" y="440" as="sourcePoint" />
            <mxPoint x="950" y="650" as="targetPoint" />
            <Array as="points">
              <mxPoint x="910" y="425" />
              <mxPoint x="910" y="670" />
              <mxPoint x="950" y="670" />
            </Array>
          </mxGeometry>
        </mxCell>
        <mxCell id="P0X9lRQ6gSxI_ii8KuhD-83" value="" style="endArrow=none;html=1;rounded=0;jumpStyle=none;startArrow=ERoneToMany;startFill=0;edgeStyle=orthogonalEdgeStyle;exitX=1;exitY=0.5;exitDx=0;exitDy=0;entryX=1;entryY=0.5;entryDx=0;entryDy=0;" edge="1" parent="1" source="P0X9lRQ6gSxI_ii8KuhD-59" target="P0X9lRQ6gSxI_ii8KuhD-55">
          <mxGeometry width="50" height="50" relative="1" as="geometry">
            <mxPoint x="1580" y="666" as="sourcePoint" />
            <mxPoint x="1650" y="561" as="targetPoint" />
            <Array as="points">
              <mxPoint x="1590" y="666" />
              <mxPoint x="1590" y="575" />
            </Array>
          </mxGeometry>
        </mxCell>
        <mxCell id="P0X9lRQ6gSxI_ii8KuhD-54" value="Estante" style="swimlane;fontStyle=0;childLayout=stackLayout;horizontal=1;startSize=30;horizontalStack=0;resizeParent=1;resizeParentMax=0;resizeLast=0;collapsible=1;marginBottom=0;whiteSpace=wrap;html=1;fillColor=#ffcd28;strokeColor=#d79b00;gradientColor=#ffa500;" vertex="1" parent="1">
          <mxGeometry x="1300" y="530" width="240" height="60" as="geometry" />
        </mxCell>
        <mxCell id="P0X9lRQ6gSxI_ii8KuhD-55" value="&lt;u&gt;estantNom VARCHAR (2) NOT NULL&lt;/u&gt;&amp;nbsp;&amp;nbsp;&lt;b&gt;PK&lt;/b&gt;" style="text;strokeColor=none;fillColor=none;align=left;verticalAlign=middle;spacingLeft=4;spacingRight=4;overflow=hidden;points=[[0,0.5],[1,0.5]];portConstraint=eastwest;rotatable=0;whiteSpace=wrap;html=1;" vertex="1" parent="P0X9lRQ6gSxI_ii8KuhD-54">
          <mxGeometry y="30" width="240" height="30" as="geometry" />
        </mxCell>
        <mxCell id="P0X9lRQ6gSxI_ii8KuhD-84" value="" style="endArrow=none;html=1;rounded=0;exitX=1;exitY=0.5;exitDx=0;exitDy=0;jumpStyle=none;startArrow=ERoneToMany;startFill=0;entryX=0;entryY=0.5;entryDx=0;entryDy=0;edgeStyle=orthogonalEdgeStyle;" edge="1" parent="1" source="P0X9lRQ6gSxI_ii8KuhD-68" target="P0X9lRQ6gSxI_ii8KuhD-52">
          <mxGeometry width="50" height="50" relative="1" as="geometry">
            <mxPoint x="880" y="302.5" as="sourcePoint" />
            <mxPoint x="960" y="550" as="targetPoint" />
          </mxGeometry>
        </mxCell>
        <mxCell id="P0X9lRQ6gSxI_ii8KuhD-85" value="" style="endArrow=none;html=1;rounded=0;exitX=1;exitY=0.5;exitDx=0;exitDy=0;jumpStyle=none;startArrow=ERoneToMany;startFill=0;entryX=0;entryY=0.5;entryDx=0;entryDy=0;edgeStyle=orthogonalEdgeStyle;" edge="1" parent="1" source="P0X9lRQ6gSxI_ii8KuhD-66" target="P0X9lRQ6gSxI_ii8KuhD-49">
          <mxGeometry width="50" height="50" relative="1" as="geometry">
            <mxPoint x="870" y="360" as="sourcePoint" />
            <mxPoint x="980" y="510" as="targetPoint" />
            <Array as="points">
              <mxPoint x="940" y="365" />
              <mxPoint x="940" y="425" />
            </Array>
          </mxGeometry>
        </mxCell>
        <mxCell id="P0X9lRQ6gSxI_ii8KuhD-86" value="" style="endArrow=none;html=1;rounded=0;exitX=1;exitY=0.5;exitDx=0;exitDy=0;jumpStyle=none;startArrow=ERoneToMany;startFill=0;entryX=0;entryY=0.5;entryDx=0;entryDy=0;edgeStyle=orthogonalEdgeStyle;" edge="1" parent="1" source="UHW693a0Wnq4BT_KecG--29" target="UHW693a0Wnq4BT_KecG--20">
          <mxGeometry width="50" height="50" relative="1" as="geometry">
            <mxPoint x="880" y="330" as="sourcePoint" />
            <mxPoint x="990" y="390" as="targetPoint" />
          </mxGeometry>
        </mxCell>
        <mxCell id="P0X9lRQ6gSxI_ii8KuhD-87" value="Usuario" style="swimlane;fontStyle=0;childLayout=stackLayout;horizontal=1;startSize=30;horizontalStack=0;resizeParent=1;resizeParentMax=0;resizeLast=0;collapsible=1;marginBottom=0;whiteSpace=wrap;html=1;fillColor=#ffcd28;strokeColor=#d79b00;gradientColor=#ffa500;" vertex="1" parent="1">
          <mxGeometry x="-135" y="-900" width="265" height="300" as="geometry" />
        </mxCell>
        <mxCell id="P0X9lRQ6gSxI_ii8KuhD-88" value="&lt;u&gt;usuarioDoc VARCHAR (10)&amp;nbsp;NOT NULL&lt;/u&gt;&amp;nbsp; &amp;nbsp;&amp;nbsp;&lt;b&gt;PK&lt;/b&gt;" style="text;strokeColor=none;fillColor=none;align=left;verticalAlign=middle;spacingLeft=4;spacingRight=4;overflow=hidden;points=[[0,0.5],[1,0.5]];portConstraint=eastwest;rotatable=0;whiteSpace=wrap;html=1;" vertex="1" parent="P0X9lRQ6gSxI_ii8KuhD-87">
          <mxGeometry y="30" width="265" height="30" as="geometry" />
        </mxCell>
        <mxCell id="P0X9lRQ6gSxI_ii8KuhD-90" value="usuarioRol VARCHAR (9) NOT NULL" style="text;strokeColor=none;fillColor=none;align=left;verticalAlign=middle;spacingLeft=4;spacingRight=4;overflow=hidden;points=[[0,0.5],[1,0.5]];portConstraint=eastwest;rotatable=0;whiteSpace=wrap;html=1;" vertex="1" parent="P0X9lRQ6gSxI_ii8KuhD-87">
          <mxGeometry y="60" width="265" height="30" as="geometry" />
        </mxCell>
        <mxCell id="P0X9lRQ6gSxI_ii8KuhD-98" value="usuarioNoM VARCHAR (50) NOT NULL" style="text;strokeColor=none;fillColor=none;align=left;verticalAlign=middle;spacingLeft=4;spacingRight=4;overflow=hidden;points=[[0,0.5],[1,0.5]];portConstraint=eastwest;rotatable=0;whiteSpace=wrap;html=1;" vertex="1" parent="P0X9lRQ6gSxI_ii8KuhD-87">
          <mxGeometry y="90" width="265" height="30" as="geometry" />
        </mxCell>
        <mxCell id="P0X9lRQ6gSxI_ii8KuhD-91" value="usuarioDir VARCHAR (80) NOT NULL" style="text;strokeColor=none;fillColor=none;align=left;verticalAlign=middle;spacingLeft=4;spacingRight=4;overflow=hidden;points=[[0,0.5],[1,0.5]];portConstraint=eastwest;rotatable=0;whiteSpace=wrap;html=1;" vertex="1" parent="P0X9lRQ6gSxI_ii8KuhD-87">
          <mxGeometry y="120" width="265" height="30" as="geometry" />
        </mxCell>
        <mxCell id="P0X9lRQ6gSxI_ii8KuhD-92" value="usuarioTel VARCHAR (10) NOT NULL" style="text;strokeColor=none;fillColor=none;align=left;verticalAlign=middle;spacingLeft=4;spacingRight=4;overflow=hidden;points=[[0,0.5],[1,0.5]];portConstraint=eastwest;rotatable=0;whiteSpace=wrap;html=1;" vertex="1" parent="P0X9lRQ6gSxI_ii8KuhD-87">
          <mxGeometry y="150" width="265" height="30" as="geometry" />
        </mxCell>
        <mxCell id="P0X9lRQ6gSxI_ii8KuhD-93" value="usuarioEma VARCHAR (30) NOT NULL" style="text;strokeColor=none;fillColor=none;align=left;verticalAlign=middle;spacingLeft=4;spacingRight=4;overflow=hidden;points=[[0,0.5],[1,0.5]];portConstraint=eastwest;rotatable=0;whiteSpace=wrap;html=1;" vertex="1" parent="P0X9lRQ6gSxI_ii8KuhD-87">
          <mxGeometry y="180" width="265" height="30" as="geometry" />
        </mxCell>
        <mxCell id="P0X9lRQ6gSxI_ii8KuhD-94" value="usuarioCon VARCHAR (300) NOT NULL" style="text;strokeColor=none;fillColor=none;align=left;verticalAlign=middle;spacingLeft=4;spacingRight=4;overflow=hidden;points=[[0,0.5],[1,0.5]];portConstraint=eastwest;rotatable=0;whiteSpace=wrap;html=1;" vertex="1" parent="P0X9lRQ6gSxI_ii8KuhD-87">
          <mxGeometry y="210" width="265" height="30" as="geometry" />
        </mxCell>
        <mxCell id="P0X9lRQ6gSxI_ii8KuhD-96" value="usuarioAct BOOLEAN NOT NULL DEFAULT TRUE" style="text;strokeColor=none;fillColor=none;align=left;verticalAlign=middle;spacingLeft=4;spacingRight=4;overflow=hidden;points=[[0,0.5],[1,0.5]];portConstraint=eastwest;rotatable=0;whiteSpace=wrap;html=1;" vertex="1" parent="P0X9lRQ6gSxI_ii8KuhD-87">
          <mxGeometry y="240" width="265" height="30" as="geometry" />
        </mxCell>
        <mxCell id="P0X9lRQ6gSxI_ii8KuhD-97" value="sesionActiva BOOLEAN NOT NULL DEFAULT FALSE" style="text;strokeColor=none;fillColor=none;align=left;verticalAlign=middle;spacingLeft=4;spacingRight=4;overflow=hidden;points=[[0,0.5],[1,0.5]];portConstraint=eastwest;rotatable=0;whiteSpace=wrap;html=1;" vertex="1" parent="P0X9lRQ6gSxI_ii8KuhD-87">
          <mxGeometry y="270" width="265" height="30" as="geometry" />
        </mxCell>
        <mxCell id="P0X9lRQ6gSxI_ii8KuhD-118" value="" style="endArrow=none;html=1;rounded=0;exitX=1;exitY=0.5;exitDx=0;exitDy=0;jumpStyle=arc;startArrow=ERoneToMany;startFill=0;jumpSize=15;edgeStyle=orthogonalEdgeStyle;entryX=-0.004;entryY=0.61;entryDx=0;entryDy=0;entryPerimeter=0;" edge="1" parent="1" source="bvKT32oD0-qzsxiZBk1q-39" target="UHW693a0Wnq4BT_KecG--39">
          <mxGeometry width="50" height="50" relative="1" as="geometry">
            <mxPoint x="961.4749999999999" y="-769.6600000000001" as="sourcePoint" />
            <mxPoint x="-110" y="160" as="targetPoint" />
            <Array as="points">
              <mxPoint x="1000" y="-755" />
              <mxPoint x="1000" y="-960" />
              <mxPoint x="-190" y="-960" />
              <mxPoint x="-190" y="155" />
              <mxPoint x="-101" y="155" />
            </Array>
          </mxGeometry>
        </mxCell>
        <mxCell id="P0X9lRQ6gSxI_ii8KuhD-119" value="" style="edgeStyle=orthogonalEdgeStyle;fontSize=12;html=1;endArrow=ERoneToMany;rounded=0;exitX=1.003;exitY=0.567;exitDx=0;exitDy=0;endSize=9;jumpStyle=arc;jumpSize=16;exitPerimeter=0;entryX=1;entryY=0.5;entryDx=0;entryDy=0;" edge="1" parent="1" source="P0X9lRQ6gSxI_ii8KuhD-90" target="Hx_mXP-tW_U6W2S-rnSu-19">
          <mxGeometry width="100" height="100" relative="1" as="geometry">
            <mxPoint x="144" y="-823" as="sourcePoint" />
            <mxPoint x="910" y="-785" as="targetPoint" />
            <Array as="points">
              <mxPoint x="160" y="-823" />
              <mxPoint x="160" y="-940" />
              <mxPoint x="980" y="-940" />
              <mxPoint x="980" y="-785" />
            </Array>
          </mxGeometry>
        </mxCell>
        <mxCell id="P0X9lRQ6gSxI_ii8KuhD-122" value="" style="edgeStyle=orthogonalEdgeStyle;fontSize=12;html=1;endArrow=ERoneToMany;rounded=0;startSize=6;endSize=9;exitX=1;exitY=0.5;exitDx=0;exitDy=0;entryX=1;entryY=0.5;entryDx=0;entryDy=0;jumpStyle=arc;jumpSize=15;" edge="1" parent="1" source="UISFEy1dnGY1AOQaQV74-3" target="MN3j87kPTeBehLGBgUPZ-35">
          <mxGeometry width="100" height="100" relative="1" as="geometry">
            <mxPoint x="620" y="320" as="sourcePoint" />
            <mxPoint x="500" y="80" as="targetPoint" />
            <Array as="points">
              <mxPoint x="520" y="335" />
              <mxPoint x="520" y="85" />
            </Array>
          </mxGeometry>
        </mxCell>
      </root>
    </mxGraphModel>
  </diagram>
</mxfile>
